<?xml version="1.0" encoding="ISO-8859-1" standalone="no" ?>
<!DOCTYPE svg PUBLIC "-//W3C//DTD SVG 20010904//EN"
 "http://www.w3.org/TR/2001/REC-SVG-20010904/DTD/svg10.dtd">
<svg xmlns="http://www.w3.org/2000/svg"
 xmlns:xlink="http://www.w3.org/1999/xlink"
 width= "600.0" height= "400.0">
<polyline points="
  0.0,  0.0 
  0.0,400.0 
600.0,400.0 
600.0,  0.0 
  0.0,  0.0 
" fill="none"   stroke-width=   "1.0" stroke="black"  />
<polyline points="
 10.0,390.0 
 10.0, 13.3 
590.0, 13.3 
590.0,390.0 
 10.0,390.0 
" fill="none"   stroke-width=   "1.0" stroke="black"  />
<polyline points="
 47.2, 89.2 
 48.2, 90.7 
 49.1, 92.2 
 50.1, 93.7 
 51.1, 95.2 
 52.0, 96.7 
 53.0, 98.2 
 53.9, 99.7 
 54.9,101.2 
 55.9,102.7 
 56.8,104.2 
 57.8,105.7 
 58.7,107.1 
 59.7,108.6 
 60.7,110.1 
 61.6,111.6 
 62.6,113.1 
 63.6,114.6 
 64.5,116.1 
 65.5,117.6 
 66.4,119.1 
 67.4,120.6 
 68.4,122.0 
 69.3,123.5 
 70.3,125.0 
 71.2,126.5 
 72.2,128.0 
 73.2,129.4 
 74.1,130.9 
 75.1,132.4 
 76.1,133.9 
 77.0,135.3 
 78.0,136.8 
 78.9,138.3 
 79.9,139.8 
 80.9,141.2 
 81.8,142.7 
 82.8,144.1 
 83.7,145.6 
 84.7,147.1 
 85.7,148.5 
 86.6,150.0 
 87.6,151.4 
 88.5,152.9 
 89.5,154.3 
 90.5,155.8 
 91.4,157.2 
 92.4,158.7 
 93.4,160.1 
 94.3,161.5 
 95.3,163.0 
 96.2,164.4 
 97.2,165.8 
 98.2,167.3 
 99.1,168.7 
100.1,170.1 
101.0,171.5 
102.0,172.9 
103.0,174.3 
103.9,175.7 
104.9,177.2 
105.9,178.6 
106.8,180.0 
107.8,181.4 
108.7,182.7 
109.7,184.1 
110.7,185.5 
111.6,186.9 
112.6,188.3 
113.5,189.7 
114.5,191.0 
115.5,192.4 
116.4,193.8 
117.4,195.1 
118.4,196.5 
119.3,197.8 
120.3,199.2 
121.2,200.5 
122.2,201.9 
123.2,203.2 
124.1,204.5 
125.1,205.9 
126.0,207.2 
127.0,208.5 
128.0,209.8 
128.9,211.1 
129.9,212.5 
130.9,213.8 
131.8,215.1 
132.8,216.4 
133.7,217.6 
134.7,218.9 
135.7,220.2 
136.6,221.5 
137.6,222.8 
138.5,224.0 
139.5,225.3 
140.5,226.5 
141.4,227.8 
142.4,229.0 
143.4,230.3 
144.3,231.5 
145.3,232.7 
146.2,234.0 
147.2,235.2 
148.2,236.4 
149.1,237.6 
150.1,238.8 
151.0,240.0 
152.0,241.2 
153.0,242.4 
153.9,243.6 
154.9,244.8 
155.8,245.9 
156.8,247.1 
157.8,248.2 
158.7,249.4 
159.7,250.5 
" fill="none"   stroke-width=   "2.0" stroke="black"  />
<polyline points="
159.7,250.5 
160.6,251.7 
161.6,252.8 
162.6,253.9 
163.5,255.0 
164.5,256.1 
165.4,257.2 
166.4,258.3 
167.3,259.4 
168.3,260.5 
169.2,261.6 
170.2,262.7 
171.1,263.7 
172.1,264.8 
173.0,265.8 
174.0,266.9 
175.0,267.9 
175.9,268.9 
176.9,270.0 
177.8,271.0 
178.8,272.0 
179.7,273.0 
180.7,274.0 
181.6,275.0 
182.6,276.0 
183.5,277.0 
184.5,278.0 
185.5,278.9 
186.4,279.9 
187.4,280.8 
188.3,281.8 
189.3,282.7 
190.2,283.7 
191.2,284.6 
192.1,285.5 
193.1,286.4 
194.0,287.4 
195.0,288.3 
195.9,289.2 
196.9,290.0 
197.9,290.9 
198.8,291.8 
199.8,292.7 
200.7,293.5 
201.7,294.4 
202.6,295.2 
203.6,296.1 
204.5,296.9 
205.5,297.7 
206.4,298.6 
207.4,299.4 
208.3,300.2 
209.3,301.0 
" fill="none"   stroke-width=   "2.0" stroke="black"  />
<polyline points="
209.3,301.0 
210.3,301.8 
211.2,302.6 
212.2,303.4 
213.1,304.1 
214.1,304.9 
215.1,305.7 
216.0,306.4 
217.0,307.2 
217.9,307.9 
218.9,308.6 
219.9,309.4 
220.8,310.1 
221.8,310.8 
222.8,311.5 
223.7,312.2 
224.7,312.9 
225.6,313.6 
226.6,314.2 
227.6,314.9 
228.5,315.6 
229.5,316.2 
230.4,316.8 
231.4,317.5 
232.4,318.1 
233.3,318.7 
234.3,319.3 
235.3,319.9 
236.2,320.5 
237.2,321.1 
238.1,321.7 
239.1,322.3 
240.1,322.8 
241.0,323.4 
242.0,323.9 
242.9,324.5 
243.9,325.0 
244.9,325.5 
245.8,326.0 
246.8,326.5 
247.7,327.0 
248.7,327.5 
249.7,328.0 
250.6,328.5 
251.6,328.9 
252.6,329.4 
253.5,329.8 
254.5,330.3 
255.4,330.7 
256.4,331.1 
257.4,331.5 
258.3,331.9 
259.3,332.3 
260.2,332.7 
261.2,333.1 
262.2,333.5 
263.1,333.8 
264.1,334.2 
265.0,334.5 
266.0,334.8 
267.0,335.2 
267.9,335.5 
268.9,335.8 
269.9,336.1 
270.8,336.4 
271.8,336.6 
272.7,336.9 
273.7,337.2 
274.7,337.4 
275.6,337.7 
276.6,337.9 
277.5,338.1 
278.5,338.3 
279.5,338.5 
280.4,338.7 
281.4,338.9 
282.4,339.1 
" fill="none"   stroke-width=   "2.0" stroke="black"  />
<polyline points="
282.4,339.1 
283.3,339.3 
284.3,339.4 
285.2,339.6 
286.2,339.7 
287.1,339.8 
288.1,340.0 
289.0,340.1 
290.0,340.2 
290.9,340.3 
291.9,340.4 
292.8,340.4 
293.8,340.5 
294.8,340.6 
295.7,340.6 
296.7,340.6 
297.6,340.7 
298.6,340.7 
299.5,340.7 
300.5,340.7 
301.4,340.7 
302.4,340.7 
303.3,340.6 
304.3,340.6 
305.2,340.6 
306.2,340.5 
307.2,340.4 
308.1,340.4 
309.1,340.3 
310.0,340.2 
311.0,340.1 
311.9,340.0 
312.9,339.8 
313.8,339.7 
314.8,339.6 
315.7,339.4 
316.7,339.3 
317.6,339.1 
" fill="none"   stroke-width=   "2.0" stroke="black"  />
<polyline points="
317.6,339.1 
318.6,338.9 
319.6,338.7 
320.5,338.5 
321.5,338.3 
322.5,338.1 
323.4,337.9 
324.4,337.7 
325.3,337.4 
326.3,337.2 
327.3,336.9 
328.2,336.6 
329.2,336.4 
330.1,336.1 
331.1,335.8 
332.1,335.5 
333.0,335.2 
334.0,334.8 
335.0,334.5 
335.9,334.2 
336.9,333.8 
337.8,333.5 
338.8,333.1 
339.8,332.7 
340.7,332.3 
341.7,331.9 
342.6,331.5 
343.6,331.1 
344.6,330.7 
345.5,330.3 
346.5,329.8 
347.4,329.4 
348.4,328.9 
349.4,328.5 
350.3,328.0 
351.3,327.5 
352.3,327.0 
353.2,326.5 
354.2,326.0 
355.1,325.5 
356.1,325.0 
357.1,324.5 
358.0,323.9 
359.0,323.4 
359.9,322.8 
360.9,322.3 
361.9,321.7 
362.8,321.1 
363.8,320.5 
364.7,319.9 
365.7,319.3 
366.7,318.7 
367.6,318.1 
368.6,317.5 
369.6,316.8 
370.5,316.2 
371.5,315.6 
372.4,314.9 
373.4,314.2 
374.4,313.6 
375.3,312.9 
376.3,312.2 
377.2,311.5 
378.2,310.8 
379.2,310.1 
380.1,309.4 
381.1,308.6 
382.1,307.9 
383.0,307.2 
384.0,306.4 
384.9,305.7 
385.9,304.9 
386.9,304.1 
387.8,303.4 
388.8,302.6 
389.7,301.8 
390.7,301.0 
" fill="none"   stroke-width=   "2.0" stroke="black"  />
<polyline points="
390.7,301.0 
391.7,300.2 
392.6,299.4 
393.6,298.6 
394.5,297.7 
395.5,296.9 
396.4,296.1 
397.4,295.2 
398.3,294.4 
399.3,293.5 
400.2,292.7 
401.2,291.8 
402.1,290.9 
403.1,290.0 
404.1,289.2 
405.0,288.3 
406.0,287.4 
406.9,286.4 
407.9,285.5 
408.8,284.6 
409.8,283.7 
410.7,282.7 
411.7,281.8 
412.6,280.8 
413.6,279.9 
414.5,278.9 
415.5,278.0 
416.5,277.0 
417.4,276.0 
418.4,275.0 
419.3,274.0 
420.3,273.0 
421.2,272.0 
422.2,271.0 
423.1,270.0 
424.1,268.9 
425.0,267.9 
426.0,266.9 
427.0,265.8 
427.9,264.8 
428.9,263.7 
429.8,262.7 
430.8,261.6 
431.7,260.5 
432.7,259.4 
433.6,258.3 
434.6,257.2 
435.5,256.1 
436.5,255.0 
437.4,253.9 
438.4,252.8 
439.4,251.7 
440.3,250.5 
" fill="none"   stroke-width=   "2.0" stroke="black"  />
<polyline points="
440.3,250.5 
441.3,249.4 
442.2,248.2 
443.2,247.1 
444.2,245.9 
445.1,244.8 
446.1,243.6 
447.0,242.4 
448.0,241.2 
449.0,240.0 
449.9,238.8 
450.9,237.6 
451.8,236.4 
452.8,235.2 
453.8,234.0 
454.7,232.7 
455.7,231.5 
456.6,230.3 
457.6,229.0 
458.6,227.8 
459.5,226.5 
460.5,225.3 
461.5,224.0 
462.4,222.8 
463.4,221.5 
464.3,220.2 
465.3,218.9 
466.3,217.6 
467.2,216.4 
468.2,215.1 
469.1,213.8 
470.1,212.5 
471.1,211.1 
472.0,209.8 
473.0,208.5 
474.0,207.2 
474.9,205.9 
475.9,204.5 
476.8,203.2 
477.8,201.9 
478.8,200.5 
479.7,199.2 
480.7,197.8 
481.6,196.5 
482.6,195.1 
483.6,193.8 
484.5,192.4 
485.5,191.0 
486.5,189.7 
487.4,188.3 
488.4,186.9 
489.3,185.5 
490.3,184.1 
491.3,182.7 
492.2,181.4 
493.2,180.0 
494.1,178.6 
495.1,177.2 
496.1,175.7 
497.0,174.3 
498.0,172.9 
499.0,171.5 
499.9,170.1 
500.9,168.7 
501.8,167.3 
502.8,165.8 
503.8,164.4 
504.7,163.0 
505.7,161.5 
506.6,160.1 
507.6,158.7 
508.6,157.2 
509.5,155.8 
510.5,154.3 
511.5,152.9 
512.4,151.4 
513.4,150.0 
514.3,148.5 
515.3,147.1 
516.3,145.6 
517.2,144.1 
518.2,142.7 
519.1,141.2 
520.1,139.8 
521.1,138.3 
522.0,136.8 
523.0,135.3 
523.9,133.9 
524.9,132.4 
525.9,130.9 
526.8,129.4 
527.8,128.0 
528.8,126.5 
529.7,125.0 
530.7,123.5 
531.6,122.0 
532.6,120.6 
533.6,119.1 
534.5,117.6 
535.5,116.1 
536.4,114.6 
537.4,113.1 
538.4,111.6 
539.3,110.1 
540.3,108.6 
541.3,107.1 
542.2,105.7 
543.2,104.2 
544.1,102.7 
545.1,101.2 
546.1, 99.7 
547.0, 98.2 
548.0, 96.7 
548.9, 95.2 
549.9, 93.7 
550.9, 92.2 
551.8, 90.7 
552.8, 89.2 
" fill="none"   stroke-width=   "2.0" stroke="black"  />
<circle cx=  "47.2" cy=  "89.2"
 r=    "4.0" fill= "red"    />
<circle cx= "159.7" cy= "250.5"
 r=    "4.0" fill= "red"    />
<circle cx= "209.3" cy= "301.0"
 r=    "4.0" fill= "red"    />
<circle cx= "282.4" cy= "339.1"
 r=    "4.0" fill= "red"    />
<circle cx= "317.6" cy= "339.1"
 r=    "4.0" fill= "red"    />
<circle cx= "390.7" cy= "301.0"
 r=    "4.0" fill= "red"    />
<circle cx= "440.3" cy= "250.5"
 r=    "4.0" fill= "red"    />
<circle cx= "552.8" cy=  "89.2"
 r=    "4.0" fill= "red"    />
</svg>
