<?xml version="1.0" encoding="iso-8859-1"?>
<!-- Generator: Adobe Illustrator 12.0.1, SVG Export Plug-In . SVG Version: 6.00 Build 51448)  -->
<!DOCTYPE svg PUBLIC "-//W3C//DTD SVG 1.1//EN" "http://www.w3.org/Graphics/SVG/1.1/DTD/svg11.dtd" [
	<!ENTITY ns_svg "http://www.w3.org/2000/svg">
	<!ENTITY ns_xlink "http://www.w3.org/1999/xlink">
]>
<svg  version="1.1" id="Layer_1" xmlns="&ns_svg;" xmlns:xlink="&ns_xlink;" width="300" height="300" viewBox="0 0 300 300"
	 style="overflow:visible;enable-background:new 0 0 300 300;" xml:space="preserve">
<path style="fill:#FF0000;" d="M300,150c0,82.8-67.2,150-150,150C67.2,300,0,232.8,0,150C0,67.2,67.2,0,150,0
	C232.8,0,300,67.2,300,150z"/>
<g>
	<path style="fill:#FF0000;" d="M24.8,150c0,69,56.2,125.2,125.2,125.2c69,0,125.2-56.2,125.2-125.2C275.2,81,219,24.8,150,24.8
		C81,24.8,24.8,81,24.8,150z"/>
	<path style="fill:#FFFFFF;" d="M150,18.9c-17.7,0-34.9,3.5-51,10.3c-7.8,3.3-15.3,7.4-22.3,12.1c-6.9,4.7-13.5,10.1-19.4,16
		c-5.9,5.9-11.3,12.5-16,19.4c-4.7,7-8.8,14.5-12.1,22.3c-6.8,16.2-10.3,33.3-10.3,51c0,17.7,3.5,34.9,10.3,51
		c3.3,7.8,7.4,15.3,12.1,22.3c4.7,6.9,10.1,13.5,16,19.4c5.9,5.9,12.5,11.3,19.4,16c7,4.7,14.5,8.8,22.3,12.1
		c16.2,6.8,33.3,10.3,51,10.3c17.7,0,34.9-3.5,51-10.3c7.8-3.3,15.3-7.4,22.3-12.1c6.9-4.7,13.5-10.1,19.4-16
		c5.9-5.9,11.3-12.5,16-19.4c4.7-7,8.8-14.5,12.1-22.3c6.8-16.2,10.3-33.3,10.3-51c0-17.7-3.5-34.9-10.3-51
		c-3.3-7.8-7.4-15.3-12.1-22.3c-4.7-6.9-10.1-13.5-16-19.4c-5.9-5.9-12.5-11.3-19.4-16c-7-4.7-14.5-8.8-22.3-12.1
		C184.9,22.4,167.7,18.9,150,18.9L150,18.9z M30.7,150C30.7,84.1,84.1,30.7,150,30.7c65.9,0,119.3,53.4,119.3,119.3l0,0l0,0
		c0,65.9-53.4,119.3-119.3,119.3C84.1,269.3,30.7,215.9,30.7,150L30.7,150L30.7,150z"/>
</g>
<g>
	<path style="fill:#FF0000;" d="M55.5,150c0,52.1,42.4,94.5,94.5,94.5c52.1,0,94.5-42.4,94.5-94.5c0-52.1-42.4-94.5-94.5-94.5
		C97.9,55.5,55.5,97.9,55.5,150z"/>
	<path style="fill:#FFFFFF;" d="M150,49.6c-13.5,0-26.7,2.7-39.1,7.9C99,62.6,88.2,69.8,79,79c-9.2,9.2-16.5,20-21.5,31.9
		c-5.2,12.4-7.9,25.5-7.9,39.1c0,13.5,2.7,26.7,7.9,39.1c5.1,12,12.3,22.7,21.5,31.9c9.2,9.2,20,16.5,31.9,21.5
		c12.4,5.2,25.5,7.9,39.1,7.9c13.5,0,26.7-2.7,39.1-7.9c12-5.1,22.7-12.3,31.9-21.5c9.2-9.2,16.5-20,21.5-31.9
		c5.2-12.4,7.9-25.5,7.9-39.1c0-13.5-2.7-26.7-7.9-39.1C237.4,99,230.2,88.2,221,79c-9.2-9.2-20-16.5-31.9-21.5
		C176.7,52.3,163.5,49.6,150,49.6L150,49.6z M61.4,150c0-48.9,39.7-88.6,88.6-88.6c48.9,0,88.6,39.7,88.6,88.6l0,0l0,0
		c0,48.9-39.7,88.6-88.6,88.6C101.1,238.6,61.4,198.9,61.4,150L61.4,150L61.4,150z"/>
</g>
<g>
	<path style="fill:#FF0000;" d="M85.8,150c0,17.1,6.7,33.3,18.8,45.4c12.1,12.1,28.2,18.8,45.4,18.8s33.3-6.7,45.4-18.8
		c12.1-12.1,18.8-28.2,18.8-45.4c0-35.4-28.8-64.2-64.2-64.2C114.6,85.8,85.8,114.6,85.8,150z"/>
	<path style="fill:#FFFFFF;" d="M150,79.9c-9.5,0-18.6,1.9-27.3,5.5c-8.3,3.5-15.8,8.6-22.3,15c-6.4,6.4-11.5,13.9-15,22.3
		c-3.7,8.6-5.5,17.8-5.5,27.3s1.9,18.6,5.5,27.3c3.5,8.3,8.6,15.8,15,22.3c6.4,6.4,13.9,11.5,22.3,15c8.6,3.7,17.8,5.5,27.3,5.5
		s18.6-1.9,27.3-5.5c8.3-3.5,15.8-8.6,22.3-15s11.5-13.9,15-22.3c3.7-8.6,5.5-17.8,5.5-27.3s-1.9-18.6-5.5-27.3
		c-3.5-8.3-8.6-15.8-15-22.3c-6.4-6.4-13.9-11.5-22.3-15C168.6,81.8,159.5,79.9,150,79.9L150,79.9z M91.7,150
		c0-32.2,26.1-58.3,58.3-58.3c32.2,0,58.3,26.1,58.3,58.3l0,0l0,0c0,32.2-26.1,58.3-58.3,58.3C117.8,208.3,91.7,182.2,91.7,150
		L91.7,150L91.7,150z"/>
</g>
<circle cx="136.4" cy="101.7" r="8.3"/>
<circle cx="83.9" cy="156.8" r="8.3"/>
<circle cx="118.8" cy="208.7" r="8.3"/>
<circle cx="208.3" cy="149.4" r="8.3"/>
</svg>
