<?xml version="1.0" encoding="UTF-8" standalone="no"?>
<svg
   xmlns:svg="http://www.w3.org/2000/svg"
   xmlns="http://www.w3.org/2000/svg"
   version="1.0"
   width="300"
   height="300"
   viewBox="0 0 300 300"
   id="Layer_1"
   xml:space="preserve"><defs
   id="defs32" />
<path
   d="M 300,150 C 300,232.8 232.8,300 150,300 C 67.2,300 0,232.8 0,150 C 0,67.2 67.2,0 150,0 C 232.8,0 300,67.2 300,150 z "
   style="fill:#ff0000"
   id="path3" />
<g
   id="g5">
	<path
   d="M 24.8,150 C 24.8,219 81,275.2 150,275.2 C 219,275.2 275.2,219 275.2,150 C 275.2,81 219,24.8 150,24.8 C 81,24.8 24.8,81 24.8,150 z "
   style="fill:#ff0000"
   id="path7" />
	<path
   d="M 150,18.9 C 132.3,18.9 115.1,22.4 99,29.2 C 91.2,32.5 83.7,36.6 76.7,41.3 C 69.8,46 63.2,51.4 57.3,57.3 C 51.4,63.2 46,69.8 41.3,76.7 C 36.6,83.7 32.5,91.2 29.2,99 C 22.4,115.2 18.9,132.3 18.9,150 C 18.9,167.7 22.4,184.9 29.2,201 C 32.5,208.8 36.6,216.3 41.3,223.3 C 46,230.2 51.4,236.8 57.3,242.7 C 63.2,248.6 69.8,254 76.7,258.7 C 83.7,263.4 91.2,267.5 99,270.8 C 115.2,277.6 132.3,281.1 150,281.1 C 167.7,281.1 184.9,277.6 201,270.8 C 208.8,267.5 216.3,263.4 223.3,258.7 C 230.2,254 236.8,248.6 242.7,242.7 C 248.6,236.8 254,230.2 258.7,223.3 C 263.4,216.3 267.5,208.8 270.8,201 C 277.6,184.8 281.1,167.7 281.1,150 C 281.1,132.3 277.6,115.1 270.8,99 C 267.5,91.2 263.4,83.7 258.7,76.7 C 254,69.8 248.6,63.2 242.7,57.3 C 236.8,51.4 230.2,46 223.3,41.3 C 216.3,36.6 208.8,32.5 201,29.2 C 184.9,22.4 167.7,18.9 150,18.9 L 150,18.9 z M 30.7,150 C 30.7,84.1 84.1,30.7 150,30.7 C 215.9,30.7 269.3,84.1 269.3,150 L 269.3,150 L 269.3,150 C 269.3,215.9 215.9,269.3 150,269.3 C 84.1,269.3 30.7,215.9 30.7,150 L 30.7,150 L 30.7,150 z "
   style="fill:#ffffff"
   id="path9" />
</g>
<g
   id="g11">
	<path
   d="M 55.5,150 C 55.5,202.1 97.9,244.5 150,244.5 C 202.1,244.5 244.5,202.1 244.5,150 C 244.5,97.9 202.1,55.5 150,55.5 C 97.9,55.5 55.5,97.9 55.5,150 z "
   style="fill:#ff0000"
   id="path13" />
	<path
   d="M 150,49.6 C 136.5,49.6 123.3,52.3 110.9,57.5 C 99,62.6 88.2,69.8 79,79 C 69.8,88.2 62.5,99 57.5,110.9 C 52.3,123.3 49.6,136.4 49.6,150 C 49.6,163.5 52.3,176.7 57.5,189.1 C 62.6,201.1 69.8,211.8 79,221 C 88.2,230.2 99,237.5 110.9,242.5 C 123.3,247.7 136.4,250.4 150,250.4 C 163.5,250.4 176.7,247.7 189.1,242.5 C 201.1,237.4 211.8,230.2 221,221 C 230.2,211.8 237.5,201 242.5,189.1 C 247.7,176.7 250.4,163.6 250.4,150 C 250.4,136.5 247.7,123.3 242.5,110.9 C 237.4,99 230.2,88.2 221,79 C 211.8,69.8 201,62.5 189.1,57.5 C 176.7,52.3 163.5,49.6 150,49.6 L 150,49.6 z M 61.4,150 C 61.4,101.1 101.1,61.4 150,61.4 C 198.9,61.4 238.6,101.1 238.6,150 L 238.6,150 L 238.6,150 C 238.6,198.9 198.9,238.6 150,238.6 C 101.1,238.6 61.4,198.9 61.4,150 L 61.4,150 L 61.4,150 z "
   style="fill:#ffffff"
   id="path15" />
</g>
<g
   id="g17">
	<path
   d="M 85.8,150 C 85.8,167.1 92.5,183.3 104.6,195.4 C 116.7,207.5 132.8,214.2 150,214.2 C 167.2,214.2 183.3,207.5 195.4,195.4 C 207.5,183.3 214.2,167.2 214.2,150 C 214.2,114.6 185.4,85.8 150,85.8 C 114.6,85.8 85.8,114.6 85.8,150 z "
   style="fill:#ff0000"
   id="path19" />
	<path
   d="M 150,79.9 C 140.5,79.9 131.4,81.8 122.7,85.4 C 114.4,88.9 106.9,94 100.4,100.4 C 94,106.8 88.9,114.3 85.4,122.7 C 81.7,131.3 79.9,140.5 79.9,150 C 79.9,159.5 81.8,168.6 85.4,177.3 C 88.9,185.6 94,193.1 100.4,199.6 C 106.8,206 114.3,211.1 122.7,214.6 C 131.3,218.3 140.5,220.1 150,220.1 C 159.5,220.1 168.6,218.2 177.3,214.6 C 185.6,211.1 193.1,206 199.6,199.6 C 206.1,193.2 211.1,185.7 214.6,177.3 C 218.3,168.7 220.1,159.5 220.1,150 C 220.1,140.5 218.2,131.4 214.6,122.7 C 211.1,114.4 206,106.9 199.6,100.4 C 193.2,94 185.7,88.9 177.3,85.4 C 168.6,81.8 159.5,79.9 150,79.9 L 150,79.9 z M 91.7,150 C 91.7,117.8 117.8,91.7 150,91.7 C 182.2,91.7 208.3,117.8 208.3,150 L 208.3,150 L 208.3,150 C 208.3,182.2 182.2,208.3 150,208.3 C 117.8,208.3 91.7,182.2 91.7,150 L 91.7,150 L 91.7,150 z "
   style="fill:#ffffff"
   id="path21" />
</g>
<circle
   cx="61.900002"
   cy="176.2"
   r="8.3000002"
   id="circle23" />
<circle
   cx="48.700001"
   cy="192"
   r="8.3000002"
   id="circle25" />
<circle
   cx="64.300003"
   cy="218.89999"
   r="8.3000002"
   id="circle27" />
<circle
   cx="76.900002"
   cy="200.5"
   r="8.3000002"
   id="circle29" />
</svg>