<?xml version="1.0" encoding="UTF-8" standalone="no"?>
<!-- Created with Inkscape (http://www.inkscape.org/) -->
<svg
   xmlns:dc="http://purl.org/dc/elements/1.1/"
   xmlns:cc="http://creativecommons.org/ns#"
   xmlns:rdf="http://www.w3.org/1999/02/22-rdf-syntax-ns#"
   xmlns:svg="http://www.w3.org/2000/svg"
   xmlns="http://www.w3.org/2000/svg"
   xmlns:sodipodi="http://sodipodi.sourceforge.net/DTD/sodipodi-0.dtd"
   xmlns:inkscape="http://www.inkscape.org/namespaces/inkscape"
   width="196.01535"
   height="153.80598"
   id="svg5677"
   sodipodi:version="0.32"
   inkscape:version="0.46"
   version="1.0"
   sodipodi:docname="Vector components.svg"
   inkscape:output_extension="org.inkscape.output.svg.inkscape">
  <defs
     id="defs5679">
    <inkscape:perspective
       sodipodi:type="inkscape:persp3d"
       inkscape:vp_x="0 : 526.18109 : 1"
       inkscape:vp_y="0 : 1000 : 0"
       inkscape:vp_z="744.09448 : 526.18109 : 1"
       inkscape:persp3d-origin="372.04724 : 350.78739 : 1"
       id="perspective5685" />
  </defs>
  <sodipodi:namedview
     id="base"
     pagecolor="#ffffff"
     bordercolor="#666666"
     borderopacity="1.0"
     inkscape:pageopacity="0.0"
     inkscape:pageshadow="2"
     inkscape:zoom="4.4861713"
     inkscape:cx="98.007675"
     inkscape:cy="76.902992"
     inkscape:document-units="px"
     inkscape:current-layer="layer1"
     showgrid="false"
     inkscape:window-width="1440"
     inkscape:window-height="881"
     inkscape:window-x="-4"
     inkscape:window-y="-4" />
  <metadata
     id="metadata5682">
    <rdf:RDF>
      <cc:Work
         rdf:about="">
        <dc:format>image/svg+xml</dc:format>
        <dc:type
           rdf:resource="http://purl.org/dc/dcmitype/StillImage" />
      </cc:Work>
    </rdf:RDF>
  </metadata>
  <g
     inkscape:label="Ebene 1"
     inkscape:groupmode="layer"
     id="layer1"
     transform="translate(-109.84695,-131.61884)">
    <path
       style="font-size:22px;font-style:normal;font-weight:bold;fill:#3c51a7;fill-opacity:1;stroke:none;stroke-width:1px;stroke-linecap:butt;stroke-linejoin:miter;stroke-opacity:1;font-family:Bitstream Vera Sans"
       d="M 225.95455,136.00256 L 229.80026,136.00256 L 232.79733,144.31701 L 235.78365,136.00256 L 239.6401,136.00256 L 234.9028,148.03381 L 230.68112,148.03381 L 225.95455,136.00256"
       id="flowRoot8274" />
    <path
       style="fill:none;fill-rule:evenodd;stroke:#000000;stroke-width:1px;stroke-linecap:butt;stroke-linejoin:miter;stroke-opacity:1"
       d="M 110.34695,266.99537 L 258.81821,266.99537"
       id="path5700" />
    <text
       xml:space="preserve"
       style="font-size:22px;font-style:normal;font-weight:normal;fill:#000000;fill-opacity:1;stroke:none;stroke-width:1px;stroke-linecap:butt;stroke-linejoin:miter;stroke-opacity:1;font-family:Bitstream Vera Sans"
       x="209.05106"
       y="216.63307"
       id="text5705"><tspan
         sodipodi:role="line"
         id="tspan5707"
         x="209.05106"
         y="216.63307"> </tspan></text>
    <path
       style="fill:none;fill-rule:evenodd;stroke:#000000;stroke-width:1px;stroke-linecap:butt;stroke-linejoin:miter;stroke-opacity:1"
       d="M 139.44656,284.92482 L 139.44656,135.27561"
       id="path5709" />
    <path
       style="fill:none;fill-rule:evenodd;stroke:#000000;stroke-width:0.60000002;stroke-linecap:butt;stroke-linejoin:miter;stroke-miterlimit:4;stroke-dasharray:1.20000004, 0.60000002;stroke-dashoffset:0;stroke-opacity:1"
       d="M 238.74581,266.34436 L 238.74581,150.53029"
       id="path5711" />
    <path
       style="fill:none;fill-rule:evenodd;stroke:#000000;stroke-width:0.60000002;stroke-linecap:butt;stroke-linejoin:miter;stroke-miterlimit:4;stroke-dasharray:1.20000001, 0.6;stroke-dashoffset:0;stroke-opacity:1"
       d="M 238.73093,150.35439 L 139.22388,150.35439"
       id="path6222" />
    <path
       style="font-size:22px;font-style:normal;font-weight:normal;fill:#3c51a7;fill-opacity:1;stroke:none;stroke-width:1px;stroke-linecap:butt;stroke-linejoin:miter;stroke-opacity:1;font-family:Bitstream Vera Sans"
       d="M 241.87648,138.32196 L 255.64796,138.32196 L 255.64796,140.12665 L 241.87648,140.12665 L 241.87648,138.32196 z M 241.87648,142.70477 L 255.64796,142.70477 L 255.64796,144.53094 L 241.87648,144.53094 L 241.87648,142.70477 z M 264.80031,131.61884 C 263.84067,133.26599 263.1281,134.89522 262.66261,136.50653 C 262.19711,138.11787 261.96437,139.75068 261.96437,141.40497 C 261.96437,143.05927 262.1989,144.69745 262.66798,146.31952 C 263.13705,147.94159 263.84783,149.57261 264.80031,151.21259 L 263.08156,151.21259 C 262.00734,149.52964 261.20346,147.87535 260.66994,146.24969 C 260.13641,144.62405 259.86964,143.00914 259.86964,141.40497 C 259.86964,139.80797 260.13462,138.20023 260.66457,136.58173 C 261.19451,134.96325 262.00017,133.30895 263.08156,131.61884 L 264.80031,131.61884 z M 278.64699,136.28094 L 274.2964,142.13544 L 278.87257,148.31219 L 276.54152,148.31219 L 273.03957,143.58563 L 269.53761,148.31219 L 267.20656,148.31219 L 271.87941,142.01727 L 267.60402,136.28094 L 269.93507,136.28094 L 273.1255,140.56708 L 276.31593,136.28094 L 278.64699,136.28094 z M 282.17043,145.58368 L 284.43703,145.58368 L 284.43703,147.43134 L 282.67531,150.86884 L 281.28957,150.86884 L 282.17043,147.43134 L 282.17043,145.58368 z M 293.67531,149.42938 C 293.11671,150.86167 292.57244,151.79624 292.0425,152.23309 C 291.51254,152.66994 290.80356,152.88836 289.91554,152.88837 L 288.33644,152.88837 L 288.33644,151.23407 L 289.4966,151.23407 C 290.04086,151.23407 290.46339,151.10516 290.76418,150.84735 C 291.06495,150.58954 291.39796,149.98081 291.7632,149.02118 L 292.11769,148.11884 L 287.25148,136.28094 L 289.34621,136.28094 L 293.10597,145.6911 L 296.86574,136.28094 L 298.96046,136.28094 L 293.67531,149.42938 z M 301.37746,131.61884 L 303.09621,131.61884 C 304.17042,133.30895 304.97429,134.96325 305.50783,136.58173 C 306.04135,138.20023 306.30811,139.80797 306.30812,141.40497 C 306.30811,143.00914 306.04135,144.62405 305.50783,146.24969 C 304.97429,147.87535 304.17042,149.52964 303.09621,151.21259 L 301.37746,151.21259 C 302.32993,149.57261 303.0407,147.94159 303.50978,146.31952 C 303.97885,144.69745 304.21339,143.05927 304.21339,141.40497 C 304.21339,139.75068 303.97885,138.11787 303.50978,136.50653 C 303.0407,134.89522 302.32993,133.26599 301.37746,131.61884 L 301.37746,131.61884 z"
       id="text6286" />
    <g
       id="g8167"
       transform="matrix(0.998565,-5.35613e-2,5.35613e-2,0.998565,91.037791,59.544983)">
      <path
         style="fill:none;fill-rule:evenodd;stroke:#3c51a7;stroke-width:5.19999981;stroke-linecap:round;stroke-linejoin:miter;stroke-miterlimit:4;stroke-dasharray:none;stroke-opacity:1"
         d="M 37.043048,209.69835 L 134.83902,106.07182"
         id="path8171"
         sodipodi:nodetypes="cc" />
      <path
         sodipodi:nodetypes="ccc"
         id="path8169"
         d="M 123.70564,108.63715 L 142.50337,98.44665 L 132.44073,117.15319"
         style="fill:#3c51a7;fill-opacity:1;fill-rule:nonzero;stroke:#3c51a7;stroke-width:0pt;stroke-linecap:butt;stroke-linejoin:miter;marker-start:none;marker-end:none;stroke-miterlimit:4;stroke-dasharray:none;stroke-opacity:1" />
    </g>
    <path
       style="fill:none;fill-rule:evenodd;stroke:#000000;stroke-width:1px;stroke-linecap:butt;stroke-linejoin:miter;stroke-opacity:1"
       d="M 238.74581,271.50075 L 238.74581,263.44021"
       id="path6224" />
    <path
       style="fill:none;fill-rule:evenodd;stroke:#000000;stroke-width:1px;stroke-linecap:butt;stroke-linejoin:miter;stroke-opacity:1"
       d="M 143.47683,150.35439 L 135.41629,150.35439"
       id="path6226" />
    <path
       transform="translate(0,-7.6018566)"
       style="font-size:22px;font-style:normal;font-weight:normal;fill:#000000;fill-opacity:1;stroke:none;stroke-width:1px;stroke-linecap:butt;stroke-linejoin:miter;stroke-opacity:1;font-family:Bitstream Vera Sans"
       d="M 244.88672,280.42556 L 240.53613,286.28005 L 245.1123,292.45681 L 242.78125,292.45681 L 239.2793,287.73025 L 235.77734,292.45681 L 233.44629,292.45681 L 238.11914,286.16189 L 233.84375,280.42556 L 236.1748,280.42556 L 239.36523,284.71169 L 242.55566,280.42556 L 244.88672,280.42556 z"
       id="flowRoot6228" />
    <path
       transform="translate(5.7013925,-4.0384863)"
       style="font-size:22px;font-style:normal;font-weight:normal;fill:#000000;fill-opacity:1;stroke:none;stroke-width:1px;stroke-linecap:butt;stroke-linejoin:miter;stroke-opacity:1;font-family:Bitstream Vera Sans"
       d="M 120.3916,162.699 C 119.833,164.13129 119.28873,165.06585 118.75879,165.50271 C 118.22884,165.93955 117.51985,166.15798 116.63184,166.15798 L 115.05273,166.15798 L 115.05273,164.50368 L 116.21289,164.50368 C 116.75716,164.50368 117.17968,164.37477 117.48047,164.11697 C 117.78125,163.85915 118.11425,163.25043 118.47949,162.29079 L 118.83398,161.38845 L 113.96777,149.55056 L 116.0625,149.55056 L 119.82227,158.96072 L 123.58203,149.55056 L 125.67676,149.55056 L 120.3916,162.699 z"
       id="flowRoot6236" />
  </g>
</svg>
