<svg version="1.1" viewBox="0.0 0.0 960.0 540.0" fill="none" stroke="none" stroke-linecap="square" stroke-miterlimit="10" xmlns:xlink="http://www.w3.org/1999/xlink" xmlns="http://www.w3.org/2000/svg"><clipPath id="g541648fdbd_0_0.0"><path d="m0 0l960.0 0l0 540.0l-960.0 0l0 -540.0z" clip-rule="nonzero"/></clipPath><g clip-path="url(#g541648fdbd_0_0.0)"><path fill="#ffffff" d="m0 0l960.0 0l0 540.0l-960.0 0z" fill-rule="evenodd"/><path fill="#000000" fill-opacity="0.0" d="m33.964565 224.58792l222.99213 0l0 135.40158l-222.99213 0z" fill-rule="evenodd"/><path fill="#000000" d="m191.38336 248.76497l0 6.34375l-3.703125 0l0 -18.0l7.015625 0q2.03125 0 3.5625 0.75q1.546875 0.734375 2.375 2.09375q0.828125 1.359375 0.828125 3.109375q0 2.640625 -1.8125 4.171875q-1.796875 1.53125 -5.0 1.53125l-3.265625 0zm0 -3.0l3.3125 0q1.484375 0 2.25 -0.6875q0.78125 -0.703125 0.78125 -1.984375q0 -1.328125 -0.78125 -2.140625q-0.78125 -0.828125 -2.15625 -0.84375l-3.40625 0l0 5.65625zm20.01358 9.34375q-0.25 -0.484375 -0.359375 -1.203125q-1.296875 1.453125 -3.375 1.453125q-1.96875 0 -3.265625 -1.140625q-1.28125 -1.140625 -1.28125 -2.875q0 -2.125 1.578125 -3.25q1.578125 -1.140625 4.546875 -1.15625l1.65625 0l0 -0.765625q0 -0.9375 -0.484375 -1.484375q-0.46875 -0.5625 -1.5 -0.5625q-0.90625 0 -1.421875 0.4375q-0.5 0.4375 -0.5 1.1875l-3.578125 0q0 -1.171875 0.71875 -2.15625q0.71875 -0.984375 2.015625 -1.546875q1.3125 -0.5625 2.953125 -0.5625q2.46875 0 3.921875 1.25q1.453125 1.234375 1.453125 3.484375l0 5.796875q0.015625 1.90625 0.53125 2.890625l0 0.203125l-3.609375 0zm-2.953125 -2.484375q0.796875 0 1.453125 -0.34375q0.671875 -0.359375 1.0 -0.953125l0 -2.296875l-1.34375 0q-2.6875 0 -2.859375 1.84375l0 0.21875q0 0.671875 0.46875 1.109375q0.46875 0.421875 1.28125 0.421875zm16.297989 -7.546875q-0.734375 -0.09375 -1.28125 -0.09375q-2.03125 0 -2.65625 1.375l0 8.75l-3.578125 0l0 -13.375l3.375 0l0.09375 1.59375q1.078125 -1.84375 2.984375 -1.84375q0.59375 0 1.109375 0.15625l-0.046875 3.4375zm6.622452 -6.640625l0 3.296875l2.28125 0l0 2.609375l-2.28125 0l0 6.6875q0 0.734375 0.28125 1.0625q0.28125 0.3125 1.09375 0.3125q0.59375 0 1.046875 -0.078125l0 2.703125q-1.046875 0.328125 -2.171875 0.328125q-3.75 0 -3.828125 -3.796875l0 -7.21875l-1.953125 0l0 -2.609375l1.953125 0l0 -3.296875l3.578125 0zm14.756058 16.671875l-3.703125 0l0 -18.0l3.703125 0l0 18.0z" fill-rule="nonzero"/><path fill="#000000" d="m72.73599 297.64496q-2.421875 -0.6875 -3.515625 -1.6875q-1.09375 -1.015625 -1.09375 -2.5q0 -1.6875 1.34375 -2.78125q1.34375 -1.109375 3.484375 -1.109375q1.46875 0 2.609375 0.578125q1.15625 0.5625 1.78125 1.5625q0.625 0.984375 0.625 2.171875l-1.875 0q0 -1.28125 -0.828125 -2.015625q-0.8125 -0.75 -2.3125 -0.75q-1.390625 0 -2.171875 0.609375q-0.765625 0.609375 -0.765625 1.703125q0 0.859375 0.734375 1.46875q0.734375 0.59375 2.5 1.09375q1.78125 0.5 2.78125 1.109375q1.0 0.59375 1.484375 1.390625q0.484375 0.796875 0.484375 1.890625q0 1.71875 -1.34375 2.765625q-1.34375 1.046875 -3.609375 1.046875q-1.453125 0 -2.734375 -0.5625q-1.265625 -0.5625 -1.953125 -1.53125q-0.6875 -0.984375 -0.6875 -2.234375l1.890625 0q0 1.296875 0.953125 2.046875q0.953125 0.734375 2.53125 0.734375q1.484375 0 2.28125 -0.59375q0.796875 -0.609375 0.796875 -1.65625q0 -1.046875 -0.734375 -1.609375q-0.734375 -0.578125 -2.65625 -1.140625zm11.771484 6.546875q-2.140625 0 -3.5 -1.40625q-1.34375 -1.421875 -1.34375 -3.78125l0 -0.34375q0 -1.5625 0.59375 -2.796875q0.609375 -1.234375 1.6875 -1.9375q1.078125 -0.703125 2.34375 -0.703125q2.0625 0 3.203125 1.359375q1.140625 1.359375 1.140625 3.890625l0 0.75l-7.15625 0q0.03125 1.5625 0.90625 2.53125q0.875 0.953125 2.21875 0.953125q0.96875 0 1.625 -0.390625q0.671875 -0.390625 1.171875 -1.03125l1.09375 0.859375q-1.328125 2.046875 -3.984375 2.046875zm-0.21875 -9.484375q-1.09375 0 -1.84375 0.796875q-0.734375 0.796875 -0.90625 2.234375l5.28125 0l0 -0.140625q-0.078125 -1.375 -0.75 -2.125q-0.65625 -0.765625 -1.78125 -0.765625zm8.876953 -3.84375l0 2.5625l1.984375 0l0 1.390625l-1.984375 0l0 6.546875q0 0.640625 0.265625 0.96875q0.265625 0.3125 0.90625 0.3125q0.3125 0 0.859375 -0.125l0 1.46875q-0.71875 0.203125 -1.390625 0.203125q-1.203125 0 -1.828125 -0.734375q-0.609375 -0.734375 -0.609375 -2.09375l0 -6.546875l-1.921875 0l0 -1.390625l1.921875 0l0 -2.5625l1.796875 0zm6.533203 0l0 2.5625l1.984375 0l0 1.390625l-1.984375 0l0 6.546875q0 0.640625 0.265625 0.96875q0.265625 0.3125 0.90625 0.3125q0.3125 0 0.859375 -0.125l0 1.46875q-0.71875 0.203125 -1.390625 0.203125q-1.203125 0 -1.828125 -0.734375q-0.609375 -0.734375 -0.609375 -2.09375l0 -6.546875l-1.921875 0l0 -1.390625l1.921875 0l0 -2.5625l1.796875 0zm6.048828 13.125l-1.796875 0l0 -10.5625l1.796875 0l0 10.5625zm-1.953125 -13.375q0 -0.4375 0.265625 -0.734375q0.28125 -0.3125 0.796875 -0.3125q0.53125 0 0.796875 0.3125q0.28125 0.296875 0.28125 0.734375q0 0.4375 -0.28125 0.734375q-0.265625 0.296875 -0.796875 0.296875q-0.515625 0 -0.796875 -0.296875q-0.265625 -0.296875 -0.265625 -0.734375zm6.5566406 2.8125l0.0625 1.328125q1.203125 -1.53125 3.15625 -1.53125q3.359375 0 3.375 3.78125l0 6.984375l-1.796875 0l0 -7.0q-0.015625 -1.140625 -0.53125 -1.6875q-0.5 -0.546875 -1.59375 -0.546875q-0.875 0 -1.546875 0.46875q-0.65625 0.46875 -1.03125 1.234375l0 7.53125l-1.796875 0l0 -10.5625l1.703125 0zm8.894531 5.1875q0 -2.46875 1.140625 -3.921875q1.140625 -1.46875 3.03125 -1.46875q1.9375 0 3.015625 1.375l0.09375 -1.171875l1.640625 0l0 10.3125q0 2.046875 -1.21875 3.21875q-1.203125 1.1875 -3.265625 1.1875q-1.140625 0 -2.234375 -0.484375q-1.09375 -0.484375 -1.671875 -1.34375l0.9375 -1.078125q1.171875 1.4375 2.84375 1.4375q1.328125 0 2.0625 -0.75q0.734375 -0.734375 0.734375 -2.078125l0 -0.921875q-1.078125 1.265625 -2.953125 1.265625q-1.859375 0 -3.015625 -1.5q-1.140625 -1.5 -1.140625 -4.078125zm1.8125 0.203125q0 1.796875 0.734375 2.8125q0.734375 1.015625 2.046875 1.015625q1.71875 0 2.515625 -1.546875l0 -4.828125q-0.828125 -1.515625 -2.484375 -1.515625q-1.328125 0 -2.078125 1.03125q-0.734375 1.03125 -0.734375 3.03125zm21.3125 4.125q-1.046875 1.25 -3.09375 1.25q-1.6875 0 -2.578125 -0.984375q-0.875 -0.984375 -0.890625 -2.90625l0 -6.875l1.8125 0l0 6.828125q0 2.390625 1.953125 2.390625q2.0625 0 2.75 -1.53125l0 -7.6875l1.8125 0l0 10.5625l-1.71875 0l-0.046875 -1.046875zm13.431641 -4.125q0 2.421875 -1.109375 3.90625q-1.09375 1.46875 -2.984375 1.46875q-1.921875 0 -3.03125 -1.234375l0 5.09375l-1.796875 0l0 -14.625l1.640625 0l0.09375 1.171875q1.09375 -1.375 3.0625 -1.375q1.90625 0 3.015625 1.4375q1.109375 1.4375 1.109375 4.0l0 0.15625zm-1.8125 -0.203125q0 -1.78125 -0.765625 -2.8125q-0.75 -1.046875 -2.078125 -1.046875q-1.640625 0 -2.46875 1.453125l0 5.0625q0.8125 1.4375 2.484375 1.4375q1.296875 0 2.0625 -1.03125q0.765625 -1.03125 0.765625 -3.0625zm15.578125 5.375q-0.15625 -0.3125 -0.25 -1.109375q-1.265625 1.3125 -3.015625 1.3125q-1.5625 0 -2.5625 -0.890625q-1.0 -0.890625 -1.0 -2.25q0 -1.640625 1.25 -2.546875q1.265625 -0.921875 3.53125 -0.921875l1.765625 0l0 -0.828125q0 -0.953125 -0.578125 -1.515625q-0.5625 -0.5625 -1.65625 -0.5625q-0.96875 0 -1.625 0.5q-0.65625 0.484375 -0.65625 1.171875l-1.8125 0q0 -0.78125 0.5625 -1.515625q0.5625 -0.75 1.515625 -1.171875q0.96875 -0.4375 2.125 -0.4375q1.828125 0 2.859375 0.921875q1.03125 0.90625 1.078125 2.515625l0 4.859375q0 1.453125 0.359375 2.3125l0 0.15625l-1.890625 0zm-3.0 -1.375q0.859375 0 1.609375 -0.4375q0.765625 -0.4375 1.109375 -1.140625l0 -2.171875l-1.421875 0q-3.3125 0 -3.3125 1.9375q0 0.859375 0.5625 1.34375q0.5625 0.46875 1.453125 0.46875zm21.658203 -1.109375l2.03125 -8.078125l1.8125 0l-3.078125 10.5625l-1.46875 0l-2.5625 -8.015625l-2.5 8.015625l-1.46875 0l-3.0625 -10.5625l1.796875 0l2.078125 7.90625l2.46875 -7.90625l1.453125 0l2.5 8.078125zm5.201172 -2.890625q0 -1.5625 0.609375 -2.796875q0.609375 -1.25 1.6875 -1.921875q1.09375 -0.671875 2.5 -0.671875q2.15625 0 3.484375 1.5q1.34375 1.484375 1.34375 3.96875l0 0.125q0 1.546875 -0.59375 2.78125q-0.59375 1.21875 -1.703125 1.90625q-1.09375 0.6875 -2.515625 0.6875q-2.140625 0 -3.484375 -1.5q-1.328125 -1.5 -1.328125 -3.953125l0 -0.125zm1.8125 0.203125q0 1.765625 0.8125 2.828125q0.828125 1.0625 2.1875 1.0625q1.375 0 2.1875 -1.078125q0.8125 -1.078125 0.8125 -3.015625q0 -1.75 -0.828125 -2.828125q-0.828125 -1.078125 -2.1875 -1.078125q-1.34375 0 -2.171875 1.0625q-0.8125 1.0625 -0.8125 3.046875zm15.171875 -3.78125q-0.40625 -0.0625 -0.875 -0.0625q-1.78125 0 -2.421875 1.515625l0 7.5l-1.796875 0l0 -10.5625l1.75 0l0.03125 1.21875q0.890625 -1.421875 2.515625 -1.421875q0.53125 0 0.796875 0.140625l0 1.671875zm4.611328 4.0625l-1.125 1.171875l0 3.71875l-1.8125 0l0 -15.0l1.8125 0l0 9.078125l0.96875 -1.171875l3.28125 -3.46875l2.203125 0l-4.109375 4.40625l4.59375 6.15625l-2.125 0l-3.6875 -4.890625zm9.152344 4.890625l-1.796875 0l0 -10.5625l1.796875 0l0 10.5625zm-1.953125 -13.375q0 -0.4375 0.265625 -0.734375q0.28125 -0.3125 0.796875 -0.3125q0.53125 0 0.796875 0.3125q0.28125 0.296875 0.28125 0.734375q0 0.4375 -0.28125 0.734375q-0.265625 0.296875 -0.796875 0.296875q-0.515625 0 -0.796875 -0.296875q-0.265625 -0.296875 -0.265625 -0.734375zm6.5566406 2.8125l0.0625 1.328125q1.203125 -1.53125 3.15625 -1.53125q3.359375 0 3.375 3.78125l0 6.984375l-1.796875 0l0 -7.0q-0.015625 -1.140625 -0.53125 -1.6875q-0.5 -0.546875 -1.59375 -0.546875q-0.875 0 -1.546875 0.46875q-0.65625 0.46875 -1.03125 1.234375l0 7.53125l-1.796875 0l0 -10.5625l1.703125 0zm8.894531 5.1875q0 -2.46875 1.140625 -3.921875q1.140625 -1.46875 3.03125 -1.46875q1.9375 0 3.015625 1.375l0.09375 -1.171875l1.640625 0l0 10.3125q0 2.046875 -1.21875 3.21875q-1.203125 1.1875 -3.265625 1.1875q-1.140625 0 -2.234375 -0.484375q-1.09375 -0.484375 -1.671875 -1.34375l0.9375 -1.078125q1.171875 1.4375 2.84375 1.4375q1.328125 0 2.0625 -0.75q0.734375 -0.734375 0.734375 -2.078125l0 -0.921875q-1.078125 1.265625 -2.953125 1.265625q-1.859375 0 -3.015625 -1.5q-1.140625 -1.5 -1.140625 -4.078125zm1.8125 0.203125q0 1.796875 0.734375 2.8125q0.734375 1.015625 2.046875 1.015625q1.71875 0 2.515625 -1.546875l0 -4.828125q-0.828125 -1.515625 -2.484375 -1.515625q-1.328125 0 -2.078125 1.03125q-0.734375 1.03125 -0.734375 3.03125z" fill-rule="nonzero"/><path fill="#000000" d="m52.944973 328.19183q-2.140625 0 -3.5 -1.40625q-1.34375 -1.421875 -1.34375 -3.78125l0 -0.34375q0 -1.5625 0.59375 -2.796875q0.609375 -1.234375 1.6875 -1.9375q1.078125 -0.703125 2.34375 -0.703125q2.0625 0 3.203125 1.359375q1.140625 1.359375 1.140625 3.890625l0 0.75l-7.15625 0q0.03125 1.5625 0.90625 2.53125q0.875 0.953125 2.21875 0.953125q0.96875 0 1.625 -0.390625q0.671875 -0.390625 1.171875 -1.03125l1.09375 0.859375q-1.328125 2.046875 -3.984375 2.046875zm-0.21875 -9.484375q-1.09375 0 -1.84375 0.796875q-0.734375 0.796875 -0.90625 2.234375l5.28125 0l0 -0.140625q-0.078125 -1.375 -0.75 -2.125q-0.65625 -0.765625 -1.78125 -0.765625zm8.142578 -1.28125l0.0625 1.328125q1.203125 -1.53125 3.1562538 -1.53125q3.359375 0 3.375 3.78125l0 6.984375l-1.796875 0l0 -7.0q-0.015625 -1.140625 -0.53125 -1.6875q-0.5 -0.546875 -1.5937538 -0.546875q-0.875 0 -1.546875 0.46875q-0.65625 0.46875 -1.03125 1.234375l0 7.53125l-1.796875 0l0 -10.5625l1.703125 0zm12.81641 8.109375l2.609375 -8.109375l1.84375 0l-3.78125 10.5625l-1.375 0l-3.828125 -10.5625l1.84375 0l2.6875 8.109375zm8.15625 2.453125l-1.796875 0l0 -10.5625l1.796875 0l0 10.5625zm-1.953125 -13.375q0 -0.4375 0.265625 -0.734375q0.28125 -0.3125 0.796875 -0.3125q0.53125 0 0.796875 0.3125q0.28125 0.296875 0.28125 0.734375q0 0.4375 -0.28125 0.734375q-0.265625 0.296875 -0.796875 0.296875q-0.515625 0 -0.796875 -0.296875q-0.265625 -0.296875 -0.265625 -0.734375zm9.947266 4.421875q-0.40625 -0.0625 -0.875 -0.0625q-1.78125 0 -2.421875 1.515625l0 7.5l-1.796875 0l0 -10.5625l1.75 0l0.03125 1.21875q0.890625 -1.421875 2.515625 -1.421875q0.53125 0 0.796875 0.140625l0 1.671875zm0.9941406 3.578125q0 -1.5625 0.609375 -2.796875q0.609375 -1.25 1.6875 -1.921875q1.09375 -0.671875 2.5 -0.671875q2.15625 0 3.484375 1.5q1.34375 1.484375 1.34375 3.96875l0 0.125q0 1.546875 -0.59375 2.78125q-0.59375 1.21875 -1.703125 1.90625q-1.09375 0.6875 -2.515625 0.6875q-2.140625 0 -3.484375 -1.5q-1.328125 -1.5 -1.328125 -3.953125l0 -0.125zm1.8125 0.203125q0 1.765625 0.8125 2.828125q0.828125 1.0625 2.1875 1.0625q1.375 0 2.1875 -1.078125q0.8125 -1.078125 0.8125 -3.015625q0 -1.75 -0.828125 -2.828125q-0.828125 -1.078125 -2.1875 -1.078125q-1.34375 0 -2.171875 1.0625q-0.8125 1.0625 -0.8125 3.046875zm11.78125 -5.390625l0.0625 1.328125q1.203125 -1.53125 3.15625 -1.53125q3.359375 0 3.375 3.78125l0 6.984375l-1.796875 0l0 -7.0q-0.015625 -1.140625 -0.53125 -1.6875q-0.5 -0.546875 -1.59375 -0.546875q-0.875 0 -1.546875 0.46875q-0.65625 0.46875 -1.03125 1.234375l0 7.53125l-1.796875 0l0 -10.5625l1.703125 0zm11.019531 0l0.046875 1.171875q1.171875 -1.375 3.140625 -1.375q2.21875 0 3.015625 1.703125q0.53125 -0.765625 1.375 -1.234375q0.84375 -0.46875 2.0 -0.46875q3.46875 0 3.53125 3.6875l0 7.078125l-1.8125 0l0 -6.96875q0 -1.140625 -0.515625 -1.703125q-0.515625 -0.5625 -1.734375 -0.5625q-1.0 0 -1.671875 0.609375q-0.65625 0.59375 -0.765625 1.609375l0 7.015625l-1.8125 0l0 -6.921875q0 -2.3125 -2.265625 -2.3125q-1.78125 0 -2.421875 1.515625l0 7.71875l-1.8125 0l0 -10.5625l1.703125 0zm20.216797 10.765625q-2.140625 0 -3.5 -1.40625q-1.34375 -1.421875 -1.34375 -3.78125l0 -0.34375q0 -1.5625 0.59375 -2.796875q0.609375 -1.234375 1.6875 -1.9375q1.078125 -0.703125 2.34375 -0.703125q2.0625 0 3.203125 1.359375q1.140625 1.359375 1.140625 3.890625l0 0.75l-7.15625 0q0.03125 1.5625 0.90625 2.53125q0.875 0.953125 2.21875 0.953125q0.96875 0 1.625 -0.390625q0.671875 -0.390625 1.171875 -1.03125l1.09375 0.859375q-1.328125 2.046875 -3.984375 2.046875zm-0.21875 -9.484375q-1.09375 0 -1.84375 0.796875q-0.734375 0.796875 -0.90625 2.234375l5.28125 0l0 -0.140625q-0.078125 -1.375 -0.75 -2.125q-0.65625 -0.765625 -1.78125 -0.765625zm8.142578 -1.28125l0.0625 1.328125q1.203125 -1.53125 3.15625 -1.53125q3.359375 0 3.375 3.78125l0 6.984375l-1.796875 0l0 -7.0q-0.015625 -1.140625 -0.53125 -1.6875q-0.5 -0.546875 -1.59375 -0.546875q-0.875 0 -1.546875 0.46875q-0.65625 0.46875 -1.03125 1.234375l0 7.53125l-1.796875 0l0 -10.5625l1.703125 0zm11.769531 -2.5625l0 2.5625l1.984375 0l0 1.390625l-1.984375 0l0 6.546875q0 0.640625 0.265625 0.96875q0.265625 0.3125 0.90625 0.3125q0.3125 0 0.859375 -0.125l0 1.46875q-0.71875 0.203125 -1.390625 0.203125q-1.203125 0 -1.828125 -0.734375q-0.609375 -0.734375 -0.609375 -2.09375l0 -6.546875l-1.921875 0l0 -1.390625l1.921875 0l0 -2.5625l1.796875 0zm8.96875 7.359375q0 -2.21875 0.59375 -4.25q0.59375 -2.03125 1.765625 -3.6875q1.171875 -1.65625 2.421875 -2.34375l0.375 1.1875q-1.421875 1.09375 -2.34375 3.34375q-0.90625 2.25 -1.0 5.03125l0 0.828125q0 3.765625 1.375 6.546875q0.828125 1.65625 1.96875 2.59375l-0.375 1.109375q-1.296875 -0.71875 -2.46875 -2.421875q-2.3125 -3.328125 -2.3125 -7.9375zm12.6640625 5.765625l-1.828125 0l0 -12.046875l-3.640625 1.34375l0 -1.640625l5.1875 -1.9375l0.28125 0l0 14.28125zm6.1210938 -7.125l0.71875 -7.09375l7.28125 0l0 1.671875l-5.75 0l-0.421875 3.875q1.046875 -0.609375 2.375 -0.609375q1.9375 0 3.078125 1.28125q1.140625 1.28125 1.140625 3.46875q0 2.203125 -1.1875 3.46875q-1.1875 1.265625 -3.3125 1.265625q-1.890625 0 -3.078125 -1.046875q-1.1875 -1.046875 -1.359375 -2.890625l1.71875 0q0.15625 1.21875 0.859375 1.84375q0.703125 0.609375 1.859375 0.609375q1.265625 0 1.984375 -0.859375q0.71875 -0.859375 0.71875 -2.375q0 -1.421875 -0.78125 -2.28125q-0.78125 -0.875 -2.0625 -0.875q-1.1875 0 -1.859375 0.515625l-0.484375 0.390625l-1.4375 -0.359375zm17.228516 -3.4375l0.046875 1.171875q1.171875 -1.375 3.140625 -1.375q2.21875 0 3.015625 1.703125q0.53125 -0.765625 1.375 -1.234375q0.84375 -0.46875 2.0 -0.46875q3.46875 0 3.53125 3.6875l0 7.078125l-1.8125 0l0 -6.96875q0 -1.140625 -0.515625 -1.703125q-0.515625 -0.5625 -1.734375 -0.5625q-1.0 0 -1.671875 0.609375q-0.65625 0.59375 -0.765625 1.609375l0 7.015625l-1.8125 0l0 -6.921875q0 -2.3125 -2.265625 -2.3125q-1.78125 0 -2.421875 1.515625l0 7.71875l-1.8125 0l0 -10.5625l1.703125 0zm17.794922 10.5625l-1.796875 0l0 -10.5625l1.796875 0l0 10.5625zm-1.953125 -13.375q0 -0.4375 0.265625 -0.734375q0.28125 -0.3125 0.796875 -0.3125q0.53125 0 0.796875 0.3125q0.28125 0.296875 0.28125 0.734375q0 0.4375 -0.28125 0.734375q-0.265625 0.296875 -0.796875 0.296875q-0.515625 0 -0.796875 -0.296875q-0.265625 -0.296875 -0.265625 -0.734375zm6.5566406 2.8125l0.0625 1.328125q1.203125 -1.53125 3.15625 -1.53125q3.359375 0 3.375 3.78125l0 6.984375l-1.796875 0l0 -7.0q-0.015625 -1.140625 -0.53125 -1.6875q-0.5 -0.546875 -1.59375 -0.546875q-0.875 0 -1.546875 0.46875q-0.65625 0.46875 -1.03125 1.234375l0 7.53125l-1.796875 0l0 -10.5625l1.703125 0zm15.472656 7.765625q0 -0.734375 -0.546875 -1.140625q-0.546875 -0.40625 -1.921875 -0.703125q-1.375 -0.296875 -2.1875 -0.703125q-0.796875 -0.40625 -1.1875 -0.96875q-0.375 -0.578125 -0.375 -1.359375q0 -1.296875 1.09375 -2.1875q1.09375 -0.90625 2.8125 -0.90625q1.796875 0 2.90625 0.9375q1.125 0.921875 1.125 2.359375l-1.828125 0q0 -0.734375 -0.625 -1.265625q-0.625 -0.546875 -1.578125 -0.546875q-1.0 0 -1.5625 0.4375q-0.546875 0.421875 -0.546875 1.125q0 0.640625 0.515625 0.984375q0.515625 0.328125 1.875 0.640625q1.359375 0.296875 2.1875 0.71875q0.84375 0.40625 1.25 1.0q0.40625 0.59375 0.40625 1.4375q0 1.421875 -1.140625 2.28125q-1.125 0.859375 -2.9375 0.859375q-1.265625 0 -2.25 -0.453125q-0.96875 -0.453125 -1.53125 -1.25q-0.546875 -0.8125 -0.546875 -1.75l1.8125 0q0.046875 0.90625 0.71875 1.4375q0.6875 0.53125 1.796875 0.53125q1.03125 0 1.640625 -0.40625q0.625 -0.421875 0.625 -1.109375zm8.328125 -2.875q0 2.171875 -0.578125 4.171875q-0.5625 2.0 -1.734375 3.6875q-1.171875 1.6875 -2.46875 2.40625l-0.375 -1.109375q1.5 -1.15625 2.40625 -3.578125q0.921875 -2.421875 0.9375 -5.390625l0 -0.3125q0 -2.046875 -0.4375 -3.8125q-0.421875 -1.765625 -1.1875 -3.15625q-0.765625 -1.390625 -1.71875 -2.171875l0.375 -1.109375q1.296875 0.71875 2.453125 2.390625q1.171875 1.65625 1.75 3.671875q0.578125 2.015625 0.578125 4.3125z" fill-rule="nonzero"/><path fill="#000000" fill-opacity="0.0" d="m343.89896 294.0l-66.519684 0" fill-rule="evenodd"/><path stroke="#249c90" stroke-width="1.0" stroke-linejoin="round" stroke-linecap="butt" d="m343.89896 294.0l-62.729675 0" fill-rule="evenodd"/><path fill="#249c90" stroke="#249c90" stroke-width="1.0" stroke-linecap="butt" d="m277.87927 294.0c0 -0.9085083 0.7364807 -1.644989 1.644989 -1.644989c0.9085083 0 1.644989 0.7364807 1.644989 1.644989c0 0.9085083 -0.7364807 1.644989 -1.644989 1.644989c-0.9085083 0 -1.644989 -0.7364807 -1.644989 -1.644989z" fill-rule="nonzero"/><path fill="#000000" fill-opacity="0.0" d="m703.04333 127.32284l222.99213 0l0 135.40155l-222.99213 0z" fill-rule="evenodd"/><path fill="#000000" d="m717.35583 151.49988l0 6.34375l-3.703125 0l0 -18.0l7.015625 0q2.03125 0 3.5625 0.75q1.546875 0.734375 2.375 2.09375q0.828125 1.359375 0.828125 3.109375q0 2.640625 -1.8125 4.171875q-1.796875 1.53125 -5.0 1.53125l-3.265625 0zm0 -3.0l3.3125 0q1.484375 0 2.25 -0.6875q0.78125 -0.703125 0.78125 -1.984375q0 -1.328125 -0.78125 -2.140625q-0.78125 -0.828125 -2.15625 -0.84375l-3.40625 0l0 5.65625zm20.01355 9.34375q-0.25 -0.484375 -0.359375 -1.203125q-1.296875 1.453125 -3.375 1.453125q-1.96875 0 -3.265625 -1.140625q-1.28125 -1.140625 -1.28125 -2.875q0 -2.125 1.578125 -3.25q1.578125 -1.140625 4.546875 -1.15625l1.65625 0l0 -0.765625q0 -0.9375 -0.484375 -1.484375q-0.46875 -0.5625 -1.5 -0.5625q-0.90625 0 -1.421875 0.4375q-0.5 0.4375 -0.5 1.1875l-3.578125 0q0 -1.171875 0.71875 -2.15625q0.71875 -0.984375 2.015625 -1.546875q1.3125 -0.5625 2.953125 -0.5625q2.46875 0 3.921875 1.25q1.453125 1.234375 1.453125 3.484375l0 5.796875q0.015625 1.90625 0.53125 2.890625l0 0.203125l-3.609375 0zm-2.953125 -2.484375q0.796875 0 1.453125 -0.34375q0.671875 -0.359375 1.0 -0.953125l0 -2.296875l-1.34375 0q-2.6875 0 -2.859375 1.84375l0 0.21875q0 0.671875 0.46875 1.109375q0.46875 0.421875 1.28125 0.421875zm16.297974 -7.546875q-0.734375 -0.09375 -1.28125 -0.09375q-2.03125 0 -2.65625 1.375l0 8.75l-3.578125 0l0 -13.375l3.375 0l0.09375 1.59375q1.078125 -1.84375 2.984375 -1.84375q0.59375 0 1.109375 0.15625l-0.046875 3.4375zm6.6224976 -6.640625l0 3.296875l2.28125 0l0 2.609375l-2.28125 0l0 6.6875q0 0.734375 0.28125 1.0625q0.28125 0.3125 1.09375 0.3125q0.59375 0 1.046875 -0.078125l0 2.703125q-1.046875 0.328125 -2.171875 0.328125q-3.75 0 -3.828125 -3.796875l0 -7.21875l-1.953125 0l0 -2.609375l1.953125 0l0 -3.296875l3.578125 0zm14.7560425 16.671875l-3.703125 0l0 -18.0l3.703125 0l0 18.0zm7.3832397 0l-3.703125 0l0 -18.0l3.703125 0l0 18.0zm7.3832397 0l-3.703125 0l0 -18.0l3.703125 0l0 18.0z" fill-rule="nonzero"/><path fill="#000000" d="m715.6996 206.72362l-1.875 0l0 -14.21875l1.875 0l0 14.21875zm4.861328 -10.5625l0.0625 1.328125q1.203125 -1.53125 3.15625 -1.53125q3.359375 0 3.375 3.78125l0 6.984375l-1.796875 0l0 -7.0q-0.015625 -1.140625 -0.53125 -1.6875q-0.5 -0.546875 -1.59375 -0.546875q-0.875 0 -1.546875 0.46875q-0.65625 0.46875 -1.03125 1.234375l0 7.53125l-1.796875 0l0 -10.5625l1.703125 0zm11.769531 -2.5625l0 2.5625l1.984375 0l0 1.390625l-1.984375 0l0 6.546875q0 0.640625 0.265625 0.96875q0.265625 0.3125 0.90625 0.3125q0.3125 0 0.859375 -0.125l0 1.46875q-0.71875 0.203125 -1.390625 0.203125q-1.203125 0 -1.828125 -0.734375q-0.609375 -0.734375 -0.609375 -2.09375l0 -6.546875l-1.921875 0l0 -1.390625l1.921875 0l0 -2.5625l1.796875 0zm9.189453 4.171875q-0.40625 -0.0625 -0.875 -0.0625q-1.78125 0 -2.421875 1.515625l0 7.5l-1.796875 0l0 -10.5625l1.75 0l0.03125 1.21875q0.890625 -1.421875 2.515625 -1.421875q0.53125 0 0.796875 0.140625l0 1.671875zm0.9941406 3.578125q0 -1.5625 0.609375 -2.796875q0.609375 -1.25 1.6875 -1.921875q1.09375 -0.671875 2.5 -0.671875q2.15625 0 3.484375 1.5q1.34375 1.484375 1.34375 3.96875l0 0.125q0 1.546875 -0.59375 2.78125q-0.59375 1.21875 -1.703125 1.90625q-1.09375 0.6875 -2.515625 0.6875q-2.140625 0 -3.484375 -1.5q-1.328125 -1.5 -1.328125 -3.953125l0 -0.125zm1.8125 0.203125q0 1.765625 0.8125 2.828125q0.828125 1.0625 2.1875 1.0625q1.375 0 2.1875 -1.078125q0.8125 -1.078125 0.8125 -3.015625q0 -1.75 -0.828125 -2.828125q-0.828125 -1.078125 -2.1875 -1.078125q-1.34375 0 -2.171875 1.0625q-0.8125 1.0625 -0.8125 3.046875zm9.625 -0.203125q0 -2.421875 1.15625 -3.90625q1.15625 -1.484375 3.015625 -1.484375q1.859375 0 2.9375 1.265625l0 -5.5l1.8125 0l0 15.0l-1.65625 0l-0.09375 -1.140625q-1.078125 1.34375 -3.015625 1.34375q-1.828125 0 -3.0 -1.5q-1.15625 -1.515625 -1.15625 -3.9375l0 -0.140625zm1.8125 0.203125q0 1.796875 0.734375 2.8125q0.75 1.015625 2.0625 1.015625q1.71875 0 2.5 -1.53125l0 -4.859375q-0.796875 -1.5 -2.484375 -1.5q-1.328125 0 -2.078125 1.03125q-0.734375 1.03125 -0.734375 3.03125zm16.435547 4.125q-1.046875 1.25 -3.09375 1.25q-1.6875 0 -2.578125 -0.984375q-0.875 -0.984375 -0.890625 -2.90625l0 -6.875l1.8125 0l0 6.828125q0 2.390625 1.953125 2.390625q2.0625 0 2.75 -1.53125l0 -7.6875l1.8125 0l0 10.5625l-1.71875 0l-0.046875 -1.046875zm8.744141 -0.234375q0.96875 0 1.6875 -0.578125q0.71875 -0.59375 0.796875 -1.46875l1.71875 0q-0.0625 0.90625 -0.640625 1.734375q-0.5625 0.8125 -1.53125 1.3125q-0.953125 0.484375 -2.03125 0.484375q-2.15625 0 -3.4375 -1.4375q-1.265625 -1.453125 -1.265625 -3.953125l0 -0.296875q0 -1.546875 0.5625 -2.75q0.5625 -1.203125 1.625 -1.859375q1.0625 -0.671875 2.5 -0.671875q1.78125 0 2.953125 1.0625q1.1875 1.0625 1.265625 2.765625l-1.71875 0q-0.078125 -1.015625 -0.78125 -1.671875q-0.6875 -0.671875 -1.71875 -0.671875q-1.375 0 -2.140625 1.0q-0.75 0.984375 -0.75 2.859375l0 0.34375q0 1.828125 0.75 2.8125q0.75 0.984375 2.15625 0.984375zm8.671875 -11.84375l0 2.5625l1.984375 0l0 1.390625l-1.984375 0l0 6.546875q0 0.640625 0.265625 0.96875q0.265625 0.3125 0.90625 0.3125q0.3125 0 0.859375 -0.125l0 1.46875q-0.71875 0.203125 -1.390625 0.203125q-1.203125 0 -1.828125 -0.734375q-0.609375 -0.734375 -0.609375 -2.09375l0 -6.546875l-1.921875 0l0 -1.390625l1.921875 0l0 -2.5625l1.796875 0zm6.048828 13.125l-1.796875 0l0 -10.5625l1.796875 0l0 10.5625zm-1.953125 -13.375q0 -0.4375 0.265625 -0.734375q0.28125 -0.3125 0.796875 -0.3125q0.53125 0 0.796875 0.3125q0.28125 0.296875 0.28125 0.734375q0 0.4375 -0.28125 0.734375q-0.265625 0.296875 -0.796875 0.296875q-0.515625 0 -0.796875 -0.296875q-0.265625 -0.296875 -0.265625 -0.734375zm4.3691406 8.0q0 -1.5625 0.609375 -2.796875q0.609375 -1.25 1.6875 -1.921875q1.09375 -0.671875 2.5 -0.671875q2.15625 0 3.484375 1.5q1.34375 1.484375 1.34375 3.96875l0 0.125q0 1.546875 -0.59375 2.78125q-0.59375 1.21875 -1.703125 1.90625q-1.09375 0.6875 -2.515625 0.6875q-2.140625 0 -3.484375 -1.5q-1.328125 -1.5 -1.328125 -3.953125l0 -0.125zm1.8125 0.203125q0 1.765625 0.8125 2.828125q0.828125 1.0625 2.1875 1.0625q1.375 0 2.1875 -1.078125q0.8125 -1.078125 0.8125 -3.015625q0 -1.75 -0.828125 -2.828125q-0.828125 -1.078125 -2.1875 -1.078125q-1.34375 0 -2.171875 1.0625q-0.8125 1.0625 -0.8125 3.046875zm11.78125 -5.390625l0.0625 1.328125q1.203125 -1.53125 3.15625 -1.53125q3.359375 0 3.375 3.78125l0 6.984375l-1.796875 0l0 -7.0q-0.015625 -1.140625 -0.53125 -1.6875q-0.5 -0.546875 -1.59375 -0.546875q-0.875 0 -1.546875 0.46875q-0.65625 0.46875 -1.03125 1.234375l0 7.53125l-1.796875 0l0 -10.5625l1.703125 0zm16.720703 -2.5625l0 2.5625l1.984375 0l0 1.390625l-1.984375 0l0 6.546875q0 0.640625 0.265625 0.96875q0.265625 0.3125 0.90625 0.3125q0.3125 0 0.859375 -0.125l0 1.46875q-0.71875 0.203125 -1.390625 0.203125q-1.203125 0 -1.828125 -0.734375q-0.609375 -0.734375 -0.609375 -2.09375l0 -6.546875l-1.921875 0l0 -1.390625l1.921875 0l0 -2.5625l1.796875 0zm3.4160156 7.75q0 -1.5625 0.609375 -2.796875q0.609375 -1.25 1.6875 -1.921875q1.09375 -0.671875 2.5 -0.671875q2.15625 0 3.484375 1.5q1.34375 1.484375 1.34375 3.96875l0 0.125q0 1.546875 -0.59375 2.78125q-0.59375 1.21875 -1.703125 1.90625q-1.09375 0.6875 -2.515625 0.6875q-2.140625 0 -3.484375 -1.5q-1.328125 -1.5 -1.328125 -3.953125l0 -0.125zm1.8125 0.203125q0 1.765625 0.8125 2.828125q0.828125 1.0625 2.1875 1.0625q1.375 0 2.1875 -1.078125q0.8125 -1.078125 0.8125 -3.015625q0 -1.75 -0.828125 -2.828125q-0.828125 -1.078125 -2.1875 -1.078125q-1.34375 0 -2.171875 1.0625q-0.8125 1.0625 -0.8125 3.046875z" fill-rule="nonzero"/><path fill="#000000" d="m723.5121 218.05174l-4.5625 0l0 12.671875l-1.859375 0l0 -12.671875l-4.5625 0l0 -1.546875l10.984375 0l0 1.546875zm5.248047 12.875q-2.140625 0 -3.5 -1.40625q-1.34375 -1.421875 -1.34375 -3.78125l0 -0.34375q0 -1.5625 0.59375 -2.796875q0.609375 -1.234375 1.6875 -1.9375q1.078125 -0.703125 2.34375 -0.703125q2.0625 0 3.203125 1.359375q1.140625 1.359375 1.140625 3.890625l0 0.75l-7.15625 0q0.03125 1.5625 0.90625 2.53125q0.875 0.953125 2.21875 0.953125q0.96875 0 1.625 -0.390625q0.671875 -0.390625 1.171875 -1.03125l1.09375 0.859375q-1.328125 2.046875 -3.984375 2.046875zm-0.21875 -9.484375q-1.09375 0 -1.84375 0.796875q-0.734375 0.796875 -0.90625 2.234375l5.28125 0l0 -0.140625q-0.078125 -1.375 -0.75 -2.125q-0.65625 -0.765625 -1.78125 -0.765625zm8.142578 -1.28125l0.0625 1.328125q1.203125 -1.53125 3.15625 -1.53125q3.359375 0 3.375 3.78125l0 6.984375l-1.796875 0l0 -7.0q-0.015625 -1.140625 -0.53125 -1.6875q-0.5 -0.546875 -1.59375 -0.546875q-0.875 0 -1.546875 0.46875q-0.65625 0.46875 -1.03125 1.234375l0 7.53125l-1.796875 0l0 -10.5625l1.703125 0zm15.472656 7.765625q0 -0.734375 -0.546875 -1.140625q-0.546875 -0.40625 -1.921875 -0.703125q-1.375 -0.296875 -2.1875 -0.703125q-0.796875 -0.40625 -1.1875 -0.96875q-0.375 -0.578125 -0.375 -1.359375q0 -1.296875 1.09375 -2.1875q1.09375 -0.90625 2.8125 -0.90625q1.796875 0 2.90625 0.9375q1.125 0.921875 1.125 2.359375l-1.828125 0q0 -0.734375 -0.625 -1.265625q-0.625 -0.546875 -1.578125 -0.546875q-1.0 0 -1.5625 0.4375q-0.546875 0.421875 -0.546875 1.125q0 0.640625 0.515625 0.984375q0.515625 0.328125 1.875 0.640625q1.359375 0.296875 2.1875 0.71875q0.84375 0.40625 1.25 1.0q0.40625 0.59375 0.40625 1.4375q0 1.421875 -1.140625 2.28125q-1.125 0.859375 -2.9375 0.859375q-1.265625 0 -2.25 -0.453125q-0.96875 -0.453125 -1.53125 -1.25q-0.546875 -0.8125 -0.546875 -1.75l1.8125 0q0.046875 0.90625 0.71875 1.4375q0.6875 0.53125 1.796875 0.53125q1.03125 0 1.640625 -0.40625q0.625 -0.421875 0.625 -1.109375zm3.6875 -2.578125q0 -1.5625 0.609375 -2.796875q0.609375 -1.25 1.6875 -1.921875q1.09375 -0.671875 2.5 -0.671875q2.15625 0 3.484375 1.5q1.34375 1.484375 1.34375 3.96875l0 0.125q0 1.546875 -0.59375 2.78125q-0.59375 1.21875 -1.703125 1.90625q-1.09375 0.6875 -2.515625 0.6875q-2.140625 0 -3.484375 -1.5q-1.328125 -1.5 -1.328125 -3.953125l0 -0.125zm1.8125 0.203125q0 1.765625 0.8125 2.828125q0.828125 1.0625 2.1875 1.0625q1.375 0 2.1875 -1.078125q0.8125 -1.078125 0.8125 -3.015625q0 -1.75 -0.828125 -2.828125q-0.828125 -1.078125 -2.1875 -1.078125q-1.34375 0 -2.171875 1.0625q-0.8125 1.0625 -0.8125 3.046875zm15.171875 -3.78125q-0.40625 -0.0625 -0.875 -0.0625q-1.78125 0 -2.421875 1.515625l0 7.5l-1.796875 0l0 -10.5625l1.75 0l0.03125 1.21875q0.890625 -1.421875 2.515625 -1.421875q0.53125 0 0.796875 0.140625l0 1.671875zm9.798828 2.671875l-5.96875 0l0 6.28125l-1.875 0l0 -14.21875l8.796875 0l0 1.546875l-6.921875 0l0 4.859375l5.96875 0l0 1.53125zm4.8828125 6.28125l-1.796875 0l0 -15.0l1.796875 0l0 15.0zm2.4160156 -5.375q0 -1.5625 0.609375 -2.796875q0.609375 -1.25 1.6875 -1.921875q1.09375 -0.671875 2.5 -0.671875q2.15625 0 3.484375 1.5q1.34375 1.484375 1.34375 3.96875l0 0.125q0 1.546875 -0.59375 2.78125q-0.59375 1.21875 -1.703125 1.90625q-1.09375 0.6875 -2.515625 0.6875q-2.140625 0 -3.484375 -1.5q-1.328125 -1.5 -1.328125 -3.953125l0 -0.125zm1.8125 0.203125q0 1.765625 0.8125 2.828125q0.828125 1.0625 2.1875 1.0625q1.375 0 2.1875 -1.078125q0.8125 -1.078125 0.8125 -3.015625q0 -1.75 -0.828125 -2.828125q-0.828125 -1.078125 -2.1875 -1.078125q-1.34375 0 -2.171875 1.0625q-0.8125 1.0625 -0.8125 3.046875zm19.421875 2.6875l2.03125 -8.078125l1.8125 0l-3.078125 10.5625l-1.46875 0l-2.5625 -8.015625l-2.5 8.015625l-1.46875 0l-3.0625 -10.5625l1.796875 0l2.078125 7.90625l2.46875 -7.90625l1.453125 0l2.5 8.078125zm10.558594 -3.28125q0 -2.21875 0.59375 -4.25q0.59375 -2.03125 1.765625 -3.6875q1.171875 -1.65625 2.421875 -2.34375l0.375 1.1875q-1.421875 1.09375 -2.34375 3.34375q-0.90625 2.25 -1.0 5.03125l0 0.828125q0 3.765625 1.375 6.546875q0.828125 1.65625 1.96875 2.59375l-0.375 1.109375q-1.296875 -0.71875 -2.46875 -2.421875q-2.3125 -3.328125 -2.3125 -7.9375zm13.8046875 -8.46875l0 1.53125l-0.328125 0q-2.109375 0.046875 -3.359375 1.265625q-1.25 1.203125 -1.4375 3.40625q1.125 -1.296875 3.0625 -1.296875q1.859375 0 2.96875 1.3125q1.109375 1.3125 1.109375 3.375q0 2.203125 -1.203125 3.53125q-1.203125 1.3125 -3.203125 1.3125q-2.046875 0 -3.3125 -1.5625q-1.265625 -1.578125 -1.265625 -4.046875l0 -0.703125q0 -3.921875 1.671875 -6.0q1.671875 -2.078125 4.984375 -2.125l0.3125 0zm-2.359375 6.40625q-0.9375 0 -1.71875 0.5625q-0.78125 0.5625 -1.078125 1.390625l0 0.671875q0 1.75 0.78125 2.828125q0.796875 1.078125 1.984375 1.078125q1.21875 0 1.90625 -0.890625q0.703125 -0.90625 0.703125 -2.359375q0 -1.46875 -0.703125 -2.375q-0.703125 -0.90625 -1.875 -0.90625zm15.417969 1.765625q0 3.171875 -1.078125 4.71875q-1.078125 1.546875 -3.390625 1.546875q-2.28125 0 -3.375 -1.515625q-1.09375 -1.515625 -1.125 -4.515625l0 -2.40625q0 -3.140625 1.078125 -4.65625q1.09375 -1.53125 3.40625 -1.53125q2.296875 0 3.375 1.484375q1.078125 1.46875 1.109375 4.53125l0 2.34375zm-1.796875 -2.46875q0 -2.296875 -0.65625 -3.34375q-0.640625 -1.0625 -2.03125 -1.0625q-1.390625 0 -2.03125 1.046875q-0.625 1.046875 -0.640625 3.21875l0 2.890625q0 2.296875 0.65625 3.40625q0.671875 1.09375 2.03125 1.09375q1.34375 0 1.984375 -1.03125q0.65625 -1.03125 0.6875 -3.265625l0 -2.953125zm10.947266 -2.03125l0.046875 1.171875q1.171875 -1.375 3.140625 -1.375q2.21875 0 3.015625 1.703125q0.53125 -0.765625 1.375 -1.234375q0.84375 -0.46875 2.0 -0.46875q3.46875 0 3.53125 3.6875l0 7.078125l-1.8125 0l0 -6.96875q0 -1.140625 -0.515625 -1.703125q-0.515625 -0.5625 -1.734375 -0.5625q-1.0 0 -1.671875 0.609375q-0.65625 0.59375 -0.765625 1.609375l0 7.015625l-1.8125 0l0 -6.921875q0 -2.3125 -2.265625 -2.3125q-1.78125 0 -2.421875 1.515625l0 7.71875l-1.8125 0l0 -10.5625l1.703125 0zm17.794922 10.5625l-1.796875 0l0 -10.5625l1.796875 0l0 10.5625zm-1.953125 -13.375q0 -0.4375 0.265625 -0.734375q0.28125 -0.3125 0.796875 -0.3125q0.53125 0 0.796875 0.3125q0.28125 0.296875 0.28125 0.734375q0 0.4375 -0.28125 0.734375q-0.265625 0.296875 -0.796875 0.296875q-0.515625 0 -0.796875 -0.296875q-0.265625 -0.296875 -0.265625 -0.734375zm6.5566406 2.8125l0.0625 1.328125q1.203125 -1.53125 3.15625 -1.53125q3.359375 0 3.375 3.78125l0 6.984375l-1.796875 0l0 -7.0q-0.015625 -1.140625 -0.53125 -1.6875q-0.5 -0.546875 -1.59375 -0.546875q-0.875 0 -1.546875 0.46875q-0.65625 0.46875 -1.03125 1.234375l0 7.53125l-1.796875 0l0 -10.5625l1.703125 0zm15.472656 7.765625q0 -0.734375 -0.546875 -1.140625q-0.546875 -0.40625 -1.921875 -0.703125q-1.375 -0.296875 -2.1875 -0.703125q-0.796875 -0.40625 -1.1875 -0.96875q-0.375 -0.578125 -0.375 -1.359375q0 -1.296875 1.09375 -2.1875q1.09375 -0.90625 2.8125 -0.90625q1.796875 0 2.90625 0.9375q1.125 0.921875 1.125 2.359375l-1.828125 0q0 -0.734375 -0.625 -1.265625q-0.625 -0.546875 -1.578125 -0.546875q-1.0 0 -1.5625 0.4375q-0.546875 0.421875 -0.546875 1.125q0 0.640625 0.515625 0.984375q0.515625 0.328125 1.875 0.640625q1.359375 0.296875 2.1875 0.71875q0.84375 0.40625 1.25 1.0q0.40625 0.59375 0.40625 1.4375q0 1.421875 -1.140625 2.28125q-1.125 0.859375 -2.9375 0.859375q-1.265625 0 -2.25 -0.453125q-0.96875 -0.453125 -1.53125 -1.25q-0.546875 -0.8125 -0.546875 -1.75l1.8125 0q0.046875 0.90625 0.71875 1.4375q0.6875 0.53125 1.796875 0.53125q1.03125 0 1.640625 -0.40625q0.625 -0.421875 0.625 -1.109375zm8.328125 -2.875q0 2.171875 -0.578125 4.171875q-0.5625 2.0 -1.734375 3.6875q-1.171875 1.6875 -2.46875 2.40625l-0.375 -1.109375q1.5 -1.15625 2.40625 -3.578125q0.921875 -2.421875 0.9375 -5.390625l0 -0.3125q0 -2.046875 -0.4375 -3.8125q-0.421875 -1.765625 -1.1875 -3.15625q-0.765625 -1.390625 -1.71875 -2.171875l0.375 -1.109375q1.296875 0.71875 2.453125 2.390625q1.171875 1.65625 1.75 3.671875q0.578125 2.015625 0.578125 4.3125z" fill-rule="nonzero"/><path fill="#000000" fill-opacity="0.0" d="m546.96454 195.02362l135.08667 0" fill-rule="evenodd"/><path stroke="#155b54" stroke-width="1.0" stroke-linejoin="round" stroke-linecap="butt" d="m546.96454 195.02362l131.29663 0" fill-rule="evenodd"/><path fill="#155b54" stroke="#155b54" stroke-width="1.0" stroke-linecap="butt" d="m681.5512 195.02362c0 0.9085083 -0.73651123 1.6450043 -1.6450195 1.6450043c-0.9085083 0 -1.6450195 -0.736496 -1.6450195 -1.6450043c0 -0.9085083 0.73651123 -1.6450043 1.6450195 -1.6450043c0.9085083 0 1.6450195 0.736496 1.6450195 1.6450043z" fill-rule="nonzero"/><path fill="#000000" fill-opacity="0.0" d="m703.04333 333.1076l222.99213 0l0 135.40158l-222.99213 0z" fill-rule="evenodd"/><path fill="#000000" d="m717.35583 357.28464l0 6.34375l-3.703125 0l0 -18.0l7.015625 0q2.03125 0 3.5625 0.75q1.546875 0.734375 2.375 2.09375q0.828125 1.359375 0.828125 3.109375q0 2.640625 -1.8125 4.171875q-1.796875 1.53125 -5.0 1.53125l-3.265625 0zm0 -3.0l3.3125 0q1.484375 0 2.25 -0.6875q0.78125 -0.703125 0.78125 -1.984375q0 -1.328125 -0.78125 -2.140625q-0.78125 -0.828125 -2.15625 -0.84375l-3.40625 0l0 5.65625zm20.01355 9.34375q-0.25 -0.484375 -0.359375 -1.203125q-1.296875 1.453125 -3.375 1.453125q-1.96875 0 -3.265625 -1.140625q-1.28125 -1.140625 -1.28125 -2.875q0 -2.125 1.578125 -3.25q1.578125 -1.140625 4.546875 -1.15625l1.65625 0l0 -0.765625q0 -0.9375 -0.484375 -1.484375q-0.46875 -0.5625 -1.5 -0.5625q-0.90625 0 -1.421875 0.4375q-0.5 0.4375 -0.5 1.1875l-3.578125 0q0 -1.171875 0.71875 -2.15625q0.71875 -0.984375 2.015625 -1.546875q1.3125 -0.5625 2.953125 -0.5625q2.46875 0 3.921875 1.25q1.453125 1.234375 1.453125 3.484375l0 5.796875q0.015625 1.90625 0.53125 2.890625l0 0.203125l-3.609375 0zm-2.953125 -2.484375q0.796875 0 1.453125 -0.34375q0.671875 -0.359375 1.0 -0.953125l0 -2.296875l-1.34375 0q-2.6875 0 -2.859375 1.84375l0 0.21875q0 0.671875 0.46875 1.109375q0.46875 0.421875 1.28125 0.421875zm16.297974 -7.546875q-0.734375 -0.09375 -1.28125 -0.09375q-2.03125 0 -2.65625 1.375l0 8.75l-3.578125 0l0 -13.375l3.375 0l0.09375 1.59375q1.078125 -1.84375 2.984375 -1.84375q0.59375 0 1.109375 0.15625l-0.046875 3.4375zm6.6224976 -6.640625l0 3.296875l2.28125 0l0 2.609375l-2.28125 0l0 6.6875q0 0.734375 0.28125 1.0625q0.28125 0.3125 1.09375 0.3125q0.59375 0 1.046875 -0.078125l0 2.703125q-1.046875 0.328125 -2.171875 0.328125q-3.75 0 -3.828125 -3.796875l0 -7.21875l-1.953125 0l0 -2.609375l1.953125 0l0 -3.296875l3.578125 0zm14.7560425 16.671875l-3.703125 0l0 -18.0l3.703125 0l0 18.0zm7.3832397 0l-3.703125 0l0 -18.0l3.703125 0l0 18.0z" fill-rule="nonzero"/><path fill="#000000" d="m715.6996 412.5084l-1.875 0l0 -14.21875l1.875 0l0 14.21875zm4.861328 -10.5625l0.0625 1.328125q1.203125 -1.53125 3.15625 -1.53125q3.359375 0 3.375 3.78125l0 6.984375l-1.796875 0l0 -7.0q-0.015625 -1.140625 -0.53125 -1.6875q-0.5 -0.546875 -1.59375 -0.546875q-0.875 0 -1.546875 0.46875q-0.65625 0.46875 -1.03125 1.234375l0 7.53125l-1.796875 0l0 -10.5625l1.703125 0zm11.769531 -2.5625l0 2.5625l1.984375 0l0 1.390625l-1.984375 0l0 6.546875q0 0.640625 0.265625 0.96875q0.265625 0.3125 0.90625 0.3125q0.3125 0 0.859375 -0.125l0 1.46875q-0.71875 0.203125 -1.390625 0.203125q-1.203125 0 -1.828125 -0.734375q-0.609375 -0.734375 -0.609375 -2.09375l0 -6.546875l-1.921875 0l0 -1.390625l1.921875 0l0 -2.5625l1.796875 0zm9.189453 4.171875q-0.40625 -0.0625 -0.875 -0.0625q-1.78125 0 -2.421875 1.515625l0 7.5l-1.796875 0l0 -10.5625l1.75 0l0.03125 1.21875q0.890625 -1.421875 2.515625 -1.421875q0.53125 0 0.796875 0.140625l0 1.671875zm0.9941406 3.578125q0 -1.5625 0.609375 -2.796875q0.609375 -1.25 1.6875 -1.921875q1.09375 -0.671875 2.5 -0.671875q2.15625 0 3.484375 1.5q1.34375 1.484375 1.34375 3.96875l0 0.125q0 1.546875 -0.59375 2.78125q-0.59375 1.21875 -1.703125 1.90625q-1.09375 0.6875 -2.515625 0.6875q-2.140625 0 -3.484375 -1.5q-1.328125 -1.5 -1.328125 -3.953125l0 -0.125zm1.8125 0.203125q0 1.765625 0.8125 2.828125q0.828125 1.0625 2.1875 1.0625q1.375 0 2.1875 -1.078125q0.8125 -1.078125 0.8125 -3.015625q0 -1.75 -0.828125 -2.828125q-0.828125 -1.078125 -2.1875 -1.078125q-1.34375 0 -2.171875 1.0625q-0.8125 1.0625 -0.8125 3.046875zm9.625 -0.203125q0 -2.421875 1.15625 -3.90625q1.15625 -1.484375 3.015625 -1.484375q1.859375 0 2.9375 1.265625l0 -5.5l1.8125 0l0 15.0l-1.65625 0l-0.09375 -1.140625q-1.078125 1.34375 -3.015625 1.34375q-1.828125 0 -3.0 -1.5q-1.15625 -1.515625 -1.15625 -3.9375l0 -0.140625zm1.8125 0.203125q0 1.796875 0.734375 2.8125q0.75 1.015625 2.0625 1.015625q1.71875 0 2.5 -1.53125l0 -4.859375q-0.796875 -1.5 -2.484375 -1.5q-1.328125 0 -2.078125 1.03125q-0.734375 1.03125 -0.734375 3.03125zm16.435547 4.125q-1.046875 1.25 -3.09375 1.25q-1.6875 0 -2.578125 -0.984375q-0.875 -0.984375 -0.890625 -2.90625l0 -6.875l1.8125 0l0 6.828125q0 2.390625 1.953125 2.390625q2.0625 0 2.75 -1.53125l0 -7.6875l1.8125 0l0 10.5625l-1.71875 0l-0.046875 -1.046875zm8.744141 -0.234375q0.96875 0 1.6875 -0.578125q0.71875 -0.59375 0.796875 -1.46875l1.71875 0q-0.0625 0.90625 -0.640625 1.734375q-0.5625 0.8125 -1.53125 1.3125q-0.953125 0.484375 -2.03125 0.484375q-2.15625 0 -3.4375 -1.4375q-1.265625 -1.453125 -1.265625 -3.953125l0 -0.296875q0 -1.546875 0.5625 -2.75q0.5625 -1.203125 1.625 -1.859375q1.0625 -0.671875 2.5 -0.671875q1.78125 0 2.953125 1.0625q1.1875 1.0625 1.265625 2.765625l-1.71875 0q-0.078125 -1.015625 -0.78125 -1.671875q-0.6875 -0.671875 -1.71875 -0.671875q-1.375 0 -2.140625 1.0q-0.75 0.984375 -0.75 2.859375l0 0.34375q0 1.828125 0.75 2.8125q0.75 0.984375 2.15625 0.984375zm8.671875 -11.84375l0 2.5625l1.984375 0l0 1.390625l-1.984375 0l0 6.546875q0 0.640625 0.265625 0.96875q0.265625 0.3125 0.90625 0.3125q0.3125 0 0.859375 -0.125l0 1.46875q-0.71875 0.203125 -1.390625 0.203125q-1.203125 0 -1.828125 -0.734375q-0.609375 -0.734375 -0.609375 -2.09375l0 -6.546875l-1.921875 0l0 -1.390625l1.921875 0l0 -2.5625l1.796875 0zm6.048828 13.125l-1.796875 0l0 -10.5625l1.796875 0l0 10.5625zm-1.953125 -13.375q0 -0.4375 0.265625 -0.734375q0.28125 -0.3125 0.796875 -0.3125q0.53125 0 0.796875 0.3125q0.28125 0.296875 0.28125 0.734375q0 0.4375 -0.28125 0.734375q-0.265625 0.296875 -0.796875 0.296875q-0.515625 0 -0.796875 -0.296875q-0.265625 -0.296875 -0.265625 -0.734375zm4.3691406 8.0q0 -1.5625 0.609375 -2.796875q0.609375 -1.25 1.6875 -1.921875q1.09375 -0.671875 2.5 -0.671875q2.15625 0 3.484375 1.5q1.34375 1.484375 1.34375 3.96875l0 0.125q0 1.546875 -0.59375 2.78125q-0.59375 1.21875 -1.703125 1.90625q-1.09375 0.6875 -2.515625 0.6875q-2.140625 0 -3.484375 -1.5q-1.328125 -1.5 -1.328125 -3.953125l0 -0.125zm1.8125 0.203125q0 1.765625 0.8125 2.828125q0.828125 1.0625 2.1875 1.0625q1.375 0 2.1875 -1.078125q0.8125 -1.078125 0.8125 -3.015625q0 -1.75 -0.828125 -2.828125q-0.828125 -1.078125 -2.1875 -1.078125q-1.34375 0 -2.171875 1.0625q-0.8125 1.0625 -0.8125 3.046875zm11.78125 -5.390625l0.0625 1.328125q1.203125 -1.53125 3.15625 -1.53125q3.359375 0 3.375 3.78125l0 6.984375l-1.796875 0l0 -7.0q-0.015625 -1.140625 -0.53125 -1.6875q-0.5 -0.546875 -1.59375 -0.546875q-0.875 0 -1.546875 0.46875q-0.65625 0.46875 -1.03125 1.234375l0 7.53125l-1.796875 0l0 -10.5625l1.703125 0zm16.720703 -2.5625l0 2.5625l1.984375 0l0 1.390625l-1.984375 0l0 6.546875q0 0.640625 0.265625 0.96875q0.265625 0.3125 0.90625 0.3125q0.3125 0 0.859375 -0.125l0 1.46875q-0.71875 0.203125 -1.390625 0.203125q-1.203125 0 -1.828125 -0.734375q-0.609375 -0.734375 -0.609375 -2.09375l0 -6.546875l-1.921875 0l0 -1.390625l1.921875 0l0 -2.5625l1.796875 0zm3.4160156 7.75q0 -1.5625 0.609375 -2.796875q0.609375 -1.25 1.6875 -1.921875q1.09375 -0.671875 2.5 -0.671875q2.15625 0 3.484375 1.5q1.34375 1.484375 1.34375 3.96875l0 0.125q0 1.546875 -0.59375 2.78125q-0.59375 1.21875 -1.703125 1.90625q-1.09375 0.6875 -2.515625 0.6875q-2.140625 0 -3.484375 -1.5q-1.328125 -1.5 -1.328125 -3.953125l0 -0.125zm1.8125 0.203125q0 1.765625 0.8125 2.828125q0.828125 1.0625 2.1875 1.0625q1.375 0 2.1875 -1.078125q0.8125 -1.078125 0.8125 -3.015625q0 -1.75 -0.828125 -2.828125q-0.828125 -1.078125 -2.1875 -1.078125q-1.34375 0 -2.171875 1.0625q-0.8125 1.0625 -0.8125 3.046875zm15.310547 5.171875l0 -14.21875l4.015625 0q1.84375 0 3.265625 0.828125q1.4375 0.8125 2.203125 2.328125q0.78125 1.515625 0.796875 3.46875l0 0.90625q0 2.015625 -0.78125 3.53125q-0.78125 1.515625 -2.21875 2.328125q-1.4375 0.8125 -3.34375 0.828125l-3.9375 0zm1.875 -12.671875l0 11.140625l1.96875 0q2.171875 0 3.375 -1.34375q1.203125 -1.359375 1.203125 -3.84375l0 -0.828125q0 -2.421875 -1.140625 -3.765625q-1.140625 -1.34375 -3.21875 -1.359375l-2.1875 0zm15.333984 12.875q-2.140625 0 -3.5 -1.40625q-1.34375 -1.421875 -1.34375 -3.78125l0 -0.34375q0 -1.5625 0.59375 -2.796875q0.609375 -1.234375 1.6875 -1.9375q1.078125 -0.703125 2.34375 -0.703125q2.0625 0 3.203125 1.359375q1.140625 1.359375 1.140625 3.890625l0 0.75l-7.15625 0q0.03125 1.5625 0.90625 2.53125q0.875 0.953125 2.21875 0.953125q0.96875 0 1.625 -0.390625q0.671875 -0.390625 1.171875 -1.03125l1.09375 0.859375q-1.328125 2.046875 -3.984375 2.046875zm-0.21875 -9.484375q-1.09375 0 -1.84375 0.796875q-0.734375 0.796875 -0.90625 2.234375l5.28125 0l0 -0.140625q-0.078125 -1.375 -0.75 -2.125q-0.65625 -0.765625 -1.78125 -0.765625zm10.814453 9.484375q-2.140625 0 -3.5 -1.40625q-1.34375 -1.421875 -1.34375 -3.78125l0 -0.34375q0 -1.5625 0.59375 -2.796875q0.609375 -1.234375 1.6875 -1.9375q1.078125 -0.703125 2.34375 -0.703125q2.0625 0 3.203125 1.359375q1.140625 1.359375 1.140625 3.890625l0 0.75l-7.15625 0q0.03125 1.5625 0.90625 2.53125q0.875 0.953125 2.21875 0.953125q0.96875 0 1.625 -0.390625q0.671875 -0.390625 1.171875 -1.03125l1.09375 0.859375q-1.328125 2.046875 -3.984375 2.046875zm-0.21875 -9.484375q-1.09375 0 -1.84375 0.796875q-0.734375 0.796875 -0.90625 2.234375l5.28125 0l0 -0.140625q-0.078125 -1.375 -0.75 -2.125q-0.65625 -0.765625 -1.78125 -0.765625zm15.361328 4.109375q0 2.421875 -1.109375 3.90625q-1.09375 1.46875 -2.984375 1.46875q-1.921875 0 -3.03125 -1.234375l0 5.09375l-1.796875 0l0 -14.625l1.640625 0l0.09375 1.171875q1.09375 -1.375 3.0625 -1.375q1.90625 0 3.015625 1.4375q1.109375 1.4375 1.109375 4.0l0 0.15625zm-1.8125 -0.203125q0 -1.78125 -0.765625 -2.8125q-0.75 -1.046875 -2.078125 -1.046875q-1.640625 0 -2.46875 1.453125l0 5.0625q0.8125 1.4375 2.484375 1.4375q1.296875 0 2.0625 -1.03125q0.765625 -1.03125 0.765625 -3.0625z" fill-rule="nonzero"/><path fill="#000000" d="m715.5746 434.97714l6.75 0l0 1.53125l-8.625 0l0 -14.21875l1.875 0l0 12.6875zm12.980469 1.734375q-2.140625 0 -3.5 -1.40625q-1.34375 -1.421875 -1.34375 -3.78125l0 -0.34375q0 -1.5625 0.59375 -2.796875q0.609375 -1.234375 1.6875 -1.9375q1.078125 -0.703125 2.34375 -0.703125q2.0625 0 3.203125 1.359375q1.140625 1.359375 1.140625 3.890625l0 0.75l-7.15625 0q0.03125 1.5625 0.90625 2.53125q0.875 0.953125 2.21875 0.953125q0.96875 0 1.625 -0.390625q0.671875 -0.390625 1.171875 -1.03125l1.09375 0.859375q-1.328125 2.046875 -3.984375 2.046875zm-0.21875 -9.484375q-1.09375 0 -1.84375 0.796875q-0.734375 0.796875 -0.90625 2.234375l5.28125 0l0 -0.140625q-0.078125 -1.375 -0.75 -2.125q-0.65625 -0.765625 -1.78125 -0.765625zm12.955078 9.28125q-0.15625 -0.3125 -0.25 -1.109375q-1.265625 1.3125 -3.015625 1.3125q-1.5625 0 -2.5625 -0.890625q-1.0 -0.890625 -1.0 -2.25q0 -1.640625 1.25 -2.546875q1.265625 -0.921875 3.53125 -0.921875l1.765625 0l0 -0.828125q0 -0.953125 -0.578125 -1.515625q-0.5625 -0.5625 -1.65625 -0.5625q-0.96875 0 -1.625 0.5q-0.65625 0.484375 -0.65625 1.171875l-1.8125 0q0 -0.78125 0.5625 -1.515625q0.5625 -0.75 1.515625 -1.171875q0.96875 -0.4375 2.125 -0.4375q1.828125 0 2.859375 0.921875q1.03125 0.90625 1.078125 2.515625l0 4.859375q0 1.453125 0.359375 2.3125l0 0.15625l-1.890625 0zm-3.0 -1.375q0.859375 0 1.609375 -0.4375q0.765625 -0.4375 1.109375 -1.140625l0 -2.171875l-1.421875 0q-3.3125 0 -3.3125 1.9375q0 0.859375 0.5625 1.34375q0.5625 0.46875 1.453125 0.46875zm12.457031 -7.578125q-0.40625 -0.0625 -0.875 -0.0625q-1.78125 0 -2.421875 1.515625l0 7.5l-1.796875 0l0 -10.5625l1.75 0l0.03125 1.21875q0.890625 -1.421875 2.515625 -1.421875q0.53125 0 0.796875 0.140625l0 1.671875zm3.3769531 -1.609375l0.0625 1.328125q1.203125 -1.53125 3.15625 -1.53125q3.359375 0 3.375 3.78125l0 6.984375l-1.796875 0l0 -7.0q-0.015625 -1.140625 -0.53125 -1.6875q-0.5 -0.546875 -1.59375 -0.546875q-0.875 0 -1.546875 0.46875q-0.65625 0.46875 -1.03125 1.234375l0 7.53125l-1.796875 0l0 -10.5625l1.703125 0zm11.285156 10.5625l-1.796875 0l0 -10.5625l1.796875 0l0 10.5625zm-1.953125 -13.375q0 -0.4375 0.265625 -0.734375q0.28125 -0.3125 0.796875 -0.3125q0.53125 0 0.796875 0.3125q0.28125 0.296875 0.28125 0.734375q0 0.4375 -0.28125 0.734375q-0.265625 0.296875 -0.796875 0.296875q-0.515625 0 -0.796875 -0.296875q-0.265625 -0.296875 -0.265625 -0.734375zm6.5566406 2.8125l0.0625 1.328125q1.203125 -1.53125 3.15625 -1.53125q3.359375 0 3.375 3.78125l0 6.984375l-1.796875 0l0 -7.0q-0.015625 -1.140625 -0.53125 -1.6875q-0.5 -0.546875 -1.59375 -0.546875q-0.875 0 -1.546875 0.46875q-0.65625 0.46875 -1.03125 1.234375l0 7.53125l-1.796875 0l0 -10.5625l1.703125 0zm8.894531 5.1875q0 -2.46875 1.140625 -3.921875q1.140625 -1.46875 3.03125 -1.46875q1.9375 0 3.015625 1.375l0.09375 -1.171875l1.640625 0l0 10.3125q0 2.046875 -1.21875 3.21875q-1.203125 1.1875 -3.265625 1.1875q-1.140625 0 -2.234375 -0.484375q-1.09375 -0.484375 -1.671875 -1.34375l0.9375 -1.078125q1.171875 1.4375 2.84375 1.4375q1.328125 0 2.0625 -0.75q0.734375 -0.734375 0.734375 -2.078125l0 -0.921875q-1.078125 1.265625 -2.953125 1.265625q-1.859375 0 -3.015625 -1.5q-1.140625 -1.5 -1.140625 -4.078125zm1.8125 0.203125q0 1.796875 0.734375 2.8125q0.734375 1.015625 2.046875 1.015625q1.71875 0 2.515625 -1.546875l0 -4.828125q-0.828125 -1.515625 -2.484375 -1.515625q-1.328125 0 -2.078125 1.03125q-0.734375 1.03125 -0.734375 3.03125zm14.71875 -0.59375q0 -2.21875 0.59375 -4.25q0.59375 -2.03125 1.765625 -3.6875q1.171875 -1.65625 2.421875 -2.34375l0.375 1.1875q-1.421875 1.09375 -2.34375 3.34375q-0.90625 2.25 -1.0 5.03125l0 0.828125q0 3.765625 1.375 6.546875q0.828125 1.65625 1.96875 2.59375l-0.375 1.109375q-1.296875 -0.71875 -2.46875 -2.421875q-2.3125 -3.328125 -2.3125 -7.9375zm13.8046875 -8.46875l0 1.53125l-0.328125 0q-2.109375 0.046875 -3.359375 1.265625q-1.25 1.203125 -1.4375 3.40625q1.125 -1.296875 3.0625 -1.296875q1.859375 0 2.96875 1.3125q1.109375 1.3125 1.109375 3.375q0 2.203125 -1.203125 3.53125q-1.203125 1.3125 -3.203125 1.3125q-2.046875 0 -3.3125 -1.5625q-1.265625 -1.578125 -1.265625 -4.046875l0 -0.703125q0 -3.921875 1.671875 -6.0q1.671875 -2.078125 4.984375 -2.125l0.3125 0zm-2.359375 6.40625q-0.9375 0 -1.71875 0.5625q-0.78125 0.5625 -1.078125 1.390625l0 0.671875q0 1.75 0.78125 2.828125q0.796875 1.078125 1.984375 1.078125q1.21875 0 1.90625 -0.890625q0.703125 -0.90625 0.703125 -2.359375q0 -1.46875 -0.703125 -2.375q-0.703125 -0.90625 -1.875 -0.90625zm15.417969 1.765625q0 3.171875 -1.078125 4.71875q-1.078125 1.546875 -3.390625 1.546875q-2.28125 0 -3.375 -1.515625q-1.09375 -1.515625 -1.125 -4.515625l0 -2.40625q0 -3.140625 1.078125 -4.65625q1.09375 -1.53125 3.40625 -1.53125q2.296875 0 3.375 1.484375q1.078125 1.46875 1.109375 4.53125l0 2.34375zm-1.796875 -2.46875q0 -2.296875 -0.65625 -3.34375q-0.640625 -1.0625 -2.03125 -1.0625q-1.390625 0 -2.03125 1.046875q-0.625 1.046875 -0.640625 3.21875l0 2.890625q0 2.296875 0.65625 3.40625q0.671875 1.09375 2.03125 1.09375q1.34375 0 1.984375 -1.03125q0.65625 -1.03125 0.6875 -3.265625l0 -2.953125zm10.947266 -2.03125l0.046875 1.171875q1.171875 -1.375 3.140625 -1.375q2.21875 0 3.015625 1.703125q0.53125 -0.765625 1.375 -1.234375q0.84375 -0.46875 2.0 -0.46875q3.46875 0 3.53125 3.6875l0 7.078125l-1.8125 0l0 -6.96875q0 -1.140625 -0.515625 -1.703125q-0.515625 -0.5625 -1.734375 -0.5625q-1.0 0 -1.671875 0.609375q-0.65625 0.59375 -0.765625 1.609375l0 7.015625l-1.8125 0l0 -6.921875q0 -2.3125 -2.265625 -2.3125q-1.78125 0 -2.421875 1.515625l0 7.71875l-1.8125 0l0 -10.5625l1.703125 0zm17.794922 10.5625l-1.796875 0l0 -10.5625l1.796875 0l0 10.5625zm-1.953125 -13.375q0 -0.4375 0.265625 -0.734375q0.28125 -0.3125 0.796875 -0.3125q0.53125 0 0.796875 0.3125q0.28125 0.296875 0.28125 0.734375q0 0.4375 -0.28125 0.734375q-0.265625 0.296875 -0.796875 0.296875q-0.515625 0 -0.796875 -0.296875q-0.265625 -0.296875 -0.265625 -0.734375zm6.5566406 2.8125l0.0625 1.328125q1.203125 -1.53125 3.15625 -1.53125q3.359375 0 3.375 3.78125l0 6.984375l-1.796875 0l0 -7.0q-0.015625 -1.140625 -0.53125 -1.6875q-0.5 -0.546875 -1.59375 -0.546875q-0.875 0 -1.546875 0.46875q-0.65625 0.46875 -1.03125 1.234375l0 7.53125l-1.796875 0l0 -10.5625l1.703125 0zm15.472656 7.765625q0 -0.734375 -0.546875 -1.140625q-0.546875 -0.40625 -1.921875 -0.703125q-1.375 -0.296875 -2.1875 -0.703125q-0.796875 -0.40625 -1.1875 -0.96875q-0.375 -0.578125 -0.375 -1.359375q0 -1.296875 1.09375 -2.1875q1.09375 -0.90625 2.8125 -0.90625q1.796875 0 2.90625 0.9375q1.125 0.921875 1.125 2.359375l-1.828125 0q0 -0.734375 -0.625 -1.265625q-0.625 -0.546875 -1.578125 -0.546875q-1.0 0 -1.5625 0.4375q-0.546875 0.421875 -0.546875 1.125q0 0.640625 0.515625 0.984375q0.515625 0.328125 1.875 0.640625q1.359375 0.296875 2.1875 0.71875q0.84375 0.40625 1.25 1.0q0.40625 0.59375 0.40625 1.4375q0 1.421875 -1.140625 2.28125q-1.125 0.859375 -2.9375 0.859375q-1.265625 0 -2.25 -0.453125q-0.96875 -0.453125 -1.53125 -1.25q-0.546875 -0.8125 -0.546875 -1.75l1.8125 0q0.046875 0.90625 0.71875 1.4375q0.6875 0.53125 1.796875 0.53125q1.03125 0 1.640625 -0.40625q0.625 -0.421875 0.625 -1.109375zm8.328125 -2.875q0 2.171875 -0.578125 4.171875q-0.5625 2.0 -1.734375 3.6875q-1.171875 1.6875 -2.46875 2.40625l-0.375 -1.109375q1.5 -1.15625 2.40625 -3.578125q0.921875 -2.421875 0.9375 -5.390625l0 -0.3125q0 -2.046875 -0.4375 -3.8125q-0.421875 -1.765625 -1.1875 -3.15625q-0.765625 -1.390625 -1.71875 -2.171875l0.375 -1.109375q1.296875 0.71875 2.453125 2.390625q1.171875 1.65625 1.75 3.671875q0.578125 2.015625 0.578125 4.3125z" fill-rule="nonzero"/><path fill="#000000" fill-opacity="0.0" d="m546.96454 399.02362l135.08667 0" fill-rule="evenodd"/><path stroke="#1d7e74" stroke-width="1.0" stroke-linejoin="round" stroke-linecap="butt" d="m546.96454 399.02362l131.29663 0" fill-rule="evenodd"/><path fill="#1d7e74" stroke="#1d7e74" stroke-width="1.0" stroke-linecap="butt" d="m681.5512 399.02362c0 0.9085083 -0.73651123 1.644989 -1.6450195 1.644989c-0.9085083 0 -1.6450195 -0.7364807 -1.6450195 -1.644989c0 -0.9085083 0.73651123 -1.644989 1.6450195 -1.644989c0.9085083 0 1.6450195 0.7364807 1.6450195 1.644989z" fill-rule="nonzero"/><path fill="#155b54" d="m479.4183 145.83316l0 0c51.725616 0.3410492 99.38974 28.090363 125.22427 72.90364c25.834595 44.81328 25.963196 99.96651 0.3380127 144.8998l-52.565063 -29.9776l0 0c14.978943 -26.26532 14.903748 -58.504578 -0.1975708 -84.69972c-15.101318 -26.19516 -42.96295 -42.41574 -73.19861 -42.615097z" fill-rule="evenodd"/><path fill="#1d7e74" d="m605.539 362.8993l0 0c-25.702576 43.853363 -72.40765 71.135315 -123.23108 71.983215c-50.823395 0.8479309 -98.41257 -24.86081 -125.56366 -67.8324l51.04886 -32.25467l0 0c15.894836 25.156403 43.754456 40.206818 73.50751 39.71045c29.753052 -0.49639893 57.095123 -16.467804 72.14194 -42.14044z" fill-rule="evenodd"/><path fill="#249c90" d="m354.43686 363.44586l0 0c-25.279785 -44.449127 -25.398682 -98.899475 -0.31329346 -143.45859c25.085419 -44.559128 71.70047 -72.69969 122.815216 -74.14107l1.7120972 60.715424c-29.79889 0.84028625 -56.974518 17.245667 -71.598816 43.222748c-14.624298 25.977066 -14.554962 57.720535 0.1826477 83.6335z" fill-rule="evenodd"/><g filter="url(#shadowFilter-g541648fdbd_0_0.1)"><use xlink:href="#g541648fdbd_0_0.1" transform=""/></g><defs><filter id="shadowFilter-g541648fdbd_0_0.1" filterUnits="userSpaceOnUse"><feGaussianBlur in="SourceAlpha" stdDeviation="5.0" result="blur"/><feComponentTransfer in="blur" color-interpolation-filters="sRGB"><feFuncR type="linear" slope="0" intercept="0.0"/><feFuncG type="linear" slope="0" intercept="0.0"/><feFuncB type="linear" slope="0" intercept="0.0"/><feFuncA type="linear" slope="0.43" intercept="0"/></feComponentTransfer></filter></defs><g id="g541648fdbd_0_0.1"><path fill="#249c90" d="m410.31088 340.5163c3.7352905 12.893616 -1.4440613 26.715057 -12.7378845 33.992065c-11.293823 7.2769775 -26.022339 6.2828064 -36.22281 -2.4450378l19.771545 -23.079285z" fill-rule="evenodd"/></g><path fill="#249c90" d="m362.7802 373.21234c-10.6649475 -8.065369 -14.792084 -22.157715 -10.164642 -34.707703c4.6274414 -12.550018 16.920563 -20.604492 30.276459 -19.83722c13.355896 0.76724243 24.631744 10.17572 27.771057 23.171906l-29.537292 7.148712z" fill-rule="evenodd"/><g filter="url(#shadowFilter-g541648fdbd_0_0.2)"><use xlink:href="#g541648fdbd_0_0.2" transform=""/></g><defs><filter id="shadowFilter-g541648fdbd_0_0.2" filterUnits="userSpaceOnUse"><feGaussianBlur in="SourceAlpha" stdDeviation="5.0" result="blur"/><feComponentTransfer in="blur" color-interpolation-filters="sRGB"><feFuncR type="linear" slope="0" intercept="0.0"/><feFuncG type="linear" slope="0" intercept="0.0"/><feFuncB type="linear" slope="0" intercept="0.0"/><feFuncA type="linear" slope="0.43" intercept="0"/></feComponentTransfer></filter></defs><g id="g541648fdbd_0_0.2"><path fill="#155b54" d="m471.12192 205.63945c-13.0336 -3.2125702 -22.413544 -14.609055 -23.068756 -28.028168c-0.6552124 -13.419113 7.569763 -25.676758 20.228271 -30.146072l10.101501 28.662476z" fill-rule="evenodd"/></g><path fill="#155b54" d="m466.57135 148.12906c12.317047 -5.20282 26.584717 -1.7302246 35.139557 8.552567c8.55484 10.282791 9.383759 24.956085 2.041504 36.13855c-7.342224 11.182465 -21.1279 16.242676 -33.952393 12.4627075l8.577423 -29.153702z" fill-rule="evenodd"/><g filter="url(#shadowFilter-g541648fdbd_0_0.3)"><use xlink:href="#g541648fdbd_0_0.3" transform=""/></g><defs><filter id="shadowFilter-g541648fdbd_0_0.3" filterUnits="userSpaceOnUse"><feGaussianBlur in="SourceAlpha" stdDeviation="5.0" result="blur"/><feComponentTransfer in="blur" color-interpolation-filters="sRGB"><feFuncR type="linear" slope="0" intercept="0.0"/><feFuncG type="linear" slope="0" intercept="0.0"/><feFuncB type="linear" slope="0" intercept="0.0"/><feFuncA type="linear" slope="0.43" intercept="0"/></feComponentTransfer></filter></defs><g id="g541648fdbd_0_0.3"><path fill="#1d7e74" d="m557.85583 325.62308l0 0c9.299622 -9.681061 23.859924 -12.106018 35.80902 -5.963867c11.949097 6.142151 18.451782 19.393982 15.992432 32.591125l-29.874023 -5.583252z" fill-rule="evenodd"/></g><path fill="#1d7e74" d="m609.9375 350.43744c-1.6533203 13.268158 -11.795288 23.887878 -24.978394 26.15509c-13.183105 2.2672424 -26.305237 -4.3515625 -32.318176 -16.30127c-6.0129395 -11.949707 -3.50177 -26.418427 6.1846924 -35.634674l20.959106 22.005005z" fill-rule="evenodd"/><path fill="#000000" fill-opacity="0.0" d="m455.0709 153.2632l53.44879 0l0 28.031494l-53.44879 0z" fill-rule="evenodd"/><path fill="#ffffff" d="m480.79306 176.47757q0 3.140625 -1.296875 4.8125q-1.296875 1.65625 -3.8125 1.65625q-2.484375 0 -3.796875 -1.625q-1.3125 -1.640625 -1.34375 -4.6875l0 -2.796875q0 -3.171875 1.3125 -4.8125q1.328125 -1.65625 3.796875 -1.65625q2.484375 0 3.796875 1.640625q1.3125 1.625 1.34375 4.671875l0 2.796875zm-3.0 -3.0625q0 -1.890625 -0.515625 -2.75q-0.515625 -0.859375 -1.609375 -0.859375q-1.0625 0 -1.578125 0.828125q-0.5 0.8125 -0.53125 2.546875l0 3.6875q0 1.859375 0.5 2.765625q0.515625 0.890625 1.625 0.890625q1.109375 0 1.59375 -0.859375q0.484375 -0.875 0.515625 -2.65625l0 -3.59375zm8.095978 0.40625l1.609375 0q1.140625 0 1.6875 -0.5625q0.5625 -0.578125 0.5625 -1.515625q0 -0.921875 -0.546875 -1.421875q-0.546875 -0.515625 -1.515625 -0.515625q-0.859375 0 -1.453125 0.46875q-0.578125 0.46875 -0.578125 1.234375l-3.0 0q0 -1.1875 0.640625 -2.125q0.640625 -0.953125 1.78125 -1.484375q1.15625 -0.53125 2.546875 -0.53125q2.40625 0 3.765625 1.15625q1.359375 1.15625 1.359375 3.171875q0 1.03125 -0.640625 1.90625q-0.625 0.875 -1.65625 1.34375q1.28125 0.46875 1.90625 1.390625q0.625 0.90625 0.625 2.15625q0 2.015625 -1.46875 3.234375q-1.46875 1.21875 -3.890625 1.21875q-2.28125 0 -3.71875 -1.1875q-1.4375 -1.203125 -1.4375 -3.171875l3.0 0q0 0.859375 0.640625 1.40625q0.640625 0.53125 1.578125 0.53125q1.078125 0 1.6875 -0.5625q0.609375 -0.578125 0.609375 -1.515625q0 -2.265625 -2.5 -2.265625l-1.59375 0l0 -2.359375z" fill-rule="nonzero"/><path fill="#000000" fill-opacity="0.0" d="m354.39877 324.61517l53.448822 0l0 28.031494l-53.448822 0z" fill-rule="evenodd"/><path fill="#ffffff" d="m380.12094 347.82956q0 3.140625 -1.296875 4.8125q-1.296875 1.65625 -3.8125 1.65625q-2.484375 0 -3.796875 -1.625q-1.3125 -1.640625 -1.34375 -4.6875l0 -2.796875q0 -3.171875 1.3125 -4.8125q1.328125 -1.65625 3.796875 -1.65625q2.484375 0 3.796875 1.640625q1.3125 1.625 1.34375 4.671875l0 2.796875zm-3.0 -3.0625q0 -1.890625 -0.515625 -2.75q-0.515625 -0.859375 -1.609375 -0.859375q-1.0625 0 -1.578125 0.828125q-0.5 0.8125 -0.53125 2.546875l0 3.6875q0 1.859375 0.5 2.765625q0.515625 0.890625 1.625 0.890625q1.109375 0 1.59375 -0.859375q0.484375 -0.875 0.515625 -2.65625l0 -3.59375zm12.345978 9.328125l-3.015625 0l0 -11.59375l-3.59375 1.109375l0 -2.453125l6.28125 -2.25l0.328125 0l0 15.1875z" fill-rule="nonzero"/><path fill="#000000" fill-opacity="0.0" d="m554.5278 321.5102l53.44879 0l0 28.031494l-53.44879 0z" fill-rule="evenodd"/><path fill="#ffffff" d="m580.24994 344.72455q0 3.140625 -1.296875 4.8125q-1.296875 1.65625 -3.8125 1.65625q-2.484375 0 -3.796875 -1.625q-1.3125 -1.640625 -1.34375 -4.6875l0 -2.796875q0 -3.171875 1.3125 -4.8125q1.328125 -1.65625 3.796875 -1.65625q2.484375 0 3.796875 1.640625q1.3125 1.625 1.34375 4.671875l0 2.796875zm-3.0 -3.0625q0 -1.890625 -0.515625 -2.75q-0.515625 -0.859375 -1.609375 -0.859375q-1.0625 0 -1.578125 0.828125q-0.5 0.8125 -0.53125 2.546875l0 3.6875q0 1.859375 0.5 2.765625q0.515625 0.890625 1.625 0.890625q1.109375 0 1.59375 -0.859375q0.484375 -0.875 0.515625 -2.65625l0 -3.59375zm15.424133 9.328125l-10.390625 0l0 -2.0625l4.90625 -5.234375q1.015625 -1.09375 1.5 -1.921875q0.484375 -0.828125 0.484375 -1.5625q0 -1.0 -0.515625 -1.578125q-0.515625 -0.578125 -1.453125 -0.578125q-1.03125 0 -1.625 0.703125q-0.578125 0.703125 -0.578125 1.84375l-3.015625 0q0 -1.390625 0.65625 -2.53125q0.65625 -1.140625 1.859375 -1.796875q1.21875 -0.65625 2.75 -0.65625q2.34375 0 3.640625 1.125q1.296875 1.125 1.296875 3.1875q0 1.109375 -0.59375 2.28125q-0.578125 1.171875 -1.984375 2.71875l-3.453125 3.640625l6.515625 0l0 2.421875z" fill-rule="nonzero"/><path fill="#000000" fill-opacity="0.0" d="m17.706038 29.278215l933.92126 0l0 76.47244l-933.92126 0z" fill-rule="evenodd"/><path fill="#000000" d="m29.440413 76.678215l0 -28.640629l5.781248 0l0 28.640629l-5.781248 0zm30.11328 0l-5.484375 0l0 -10.59375q0 -3.3593788 -0.359375 -4.343754q-0.34375 -0.984375 -1.140625 -1.53125q-0.78125 -0.546875 -1.890625 -0.546875q-1.4375 0 -2.578125 0.78125q-1.125 0.78125 -1.546875 2.078125q-0.40625 1.28125 -0.40625 4.765629l0 9.390625l-5.5 0l0 -20.750004l5.109375 0l0 3.046875q2.703125 -3.515625 6.828125 -3.515625q1.8125 0 3.3125 0.65625q1.515625 0.65625 2.28125 1.671875q0.78125 1.015625 1.078125 2.3125q0.296875 1.28125 0.296875 3.6875l0 12.890629zm15.089848 -20.750004l0 4.375l-3.75 0l0 8.359379q0 2.546875 0.09375 2.96875q0.109375 0.421875 0.484375 0.703125q0.390625 0.265625 0.9375 0.265625q0.765625 0 2.203125 -0.53125l0.46875 4.25q-1.90625 0.828125 -4.328125 0.828125q-1.484375 0 -2.6875 -0.5q-1.1875 -0.5 -1.75 -1.28125q-0.546875 -0.796875 -0.765625 -2.140625q-0.171875 -0.96875 -0.171875 -3.875l0 -9.046879l-2.5156288 0l0 -4.375l2.5156288 0l0 -4.109375l5.515625 -3.203125l0 7.3125l3.75 0zm9.0546875 20.750004l-5.484375 0l0 -20.750004l5.09375 0l0 2.953125q1.3125 -2.09375 2.359375 -2.75q1.046875 -0.671875 2.375 -0.671875q1.875 0 3.609375 1.046875l-1.703125 4.78125q-1.390625 -0.90625 -2.578125 -0.90625q-1.15625 0 -1.953125 0.640625q-0.796875 0.640625 -1.265625 2.296875q-0.453125 1.6562538 -0.453125 6.953129l0 6.40625zm9.050781 -10.671875q0 -2.7343788 1.34375 -5.281254q1.34375 -2.5625 3.8125 -3.90625q2.46875 -1.359375 5.515625 -1.359375q4.71875 0 7.71875 3.0625q3.015625 3.0625 3.015625 7.718754q0 4.71875 -3.046875 7.8125q-3.03125 3.09375 -7.640625 3.09375q-2.859375 0 -5.453125 -1.28125q-2.578125 -1.296875 -3.921875 -3.78125q-1.34375 -2.5 -1.34375 -6.078125zm5.625 0.296875q0 3.09375 1.453125 4.734375q1.46875 1.640625 3.625 1.640625q2.140625 0 3.59375 -1.640625q1.453125 -1.640625 1.453125 -4.765625q0 -3.0468788 -1.453125 -4.687504q-1.453125 -1.640625 -3.59375 -1.640625q-2.15625 0 -3.625 1.640625q-1.453125 1.640625 -1.453125 4.718754zm39.089844 10.375l-5.09375 0l0 -3.046875q-1.265625 1.78125 -3.0 2.65625q-1.71875 0.859375 -3.484375 0.859375q-3.578125 0 -6.125 -2.875q-2.546875 -2.890625 -2.546875 -8.046875q0 -5.265629 2.484375 -8.015629q2.484375 -2.75 6.265625 -2.75q3.484375 0 6.015625 2.890625l0 -10.3125l5.484375 0l0 28.640629zm-14.640625 -10.828125q0 3.328125 0.921875 4.8125q1.328125 2.140625 3.703125 2.140625q1.890625 0 3.21875 -1.609375q1.328125 -1.609375 1.328125 -4.8125q0 -3.5781288 -1.296875 -5.140629q-1.28125 -1.578125 -3.28125 -1.578125q-1.953125 0 -3.28125 1.5625q-1.3125 1.546875 -1.3125 4.625004zm33.714844 10.828125l0 -3.109375q-1.140625 1.65625 -2.984375 2.625q-1.84375 0.953125 -3.890625 0.953125q-2.09375 0 -3.765625 -0.921875q-1.65625 -0.921875 -2.40625 -2.578125q-0.734375 -1.65625 -0.734375 -4.59375l0 -13.125004l5.5 0l0 9.531254q0 4.375 0.296875 5.375q0.296875 0.984375 1.09375 1.5625q0.8125 0.5625 2.046875 0.5625q1.40625 0 2.515625 -0.765625q1.109375 -0.765625 1.515625 -1.90625q0.421875 -1.15625 0.421875 -5.609375l0 -8.750004l5.484375 0l0 20.750004l-5.09375 0zm28.855469 -14.609379l-5.40625 0.96875q-0.265625 -1.609375 -1.234375 -2.421875q-0.96875 -0.828125 -2.515625 -0.828125q-2.046875 0 -3.265625 1.421875q-1.21875 1.40625 -1.21875 4.718754q0 3.703125 1.234375 5.234375q1.234375 1.515625 3.328125 1.515625q1.5625 0 2.5625 -0.890625q1.0 -0.890625 1.40625 -3.0625l5.390625 0.921875q-0.84375 3.703125 -3.234375 5.609375q-2.375 1.890625 -6.375 1.890625q-4.546875 0 -7.265625 -2.875q-2.703125 -2.875 -2.703125 -7.953125q0 -5.125004 2.71875 -7.984379q2.71875 -2.875 7.34375 -2.875q3.796875 0 6.03125 1.640625q2.234375 1.625 3.203125 4.96875zm13.683594 -6.140625l0 4.375l-3.75 0l0 8.359379q0 2.546875 0.09375 2.96875q0.109375 0.421875 0.484375 0.703125q0.390625 0.265625 0.9375 0.265625q0.765625 0 2.203125 -0.53125l0.46875 4.25q-1.90625 0.828125 -4.328125 0.828125q-1.484375 0 -2.6875 -0.5q-1.1875 -0.5 -1.75 -1.28125q-0.546875 -0.796875 -0.765625 -2.140625q-0.171875 -0.96875 -0.171875 -3.875l0 -9.046879l-2.515625 0l0 -4.375l2.515625 0l0 -4.109375l5.515625 -3.203125l0 7.3125l3.75 0zm3.8046875 -2.8125l0 -5.078125l5.484375 0l0 5.078125l-5.484375 0zm0 23.562504l0 -20.750004l5.484375 0l0 20.750004l-5.484375 0zm9.847656 -10.671875q0 -2.7343788 1.34375 -5.281254q1.34375 -2.5625 3.8125 -3.90625q2.46875 -1.359375 5.515625 -1.359375q4.71875 0 7.71875 3.0625q3.015625 3.0625 3.015625 7.718754q0 4.71875 -3.046875 7.8125q-3.03125 3.09375 -7.640625 3.09375q-2.859375 0 -5.453125 -1.28125q-2.578125 -1.296875 -3.921875 -3.78125q-1.34375 -2.5 -1.34375 -6.078125zm5.625 0.296875q0 3.09375 1.453125 4.734375q1.46875 1.640625 3.625 1.640625q2.140625 0 3.59375 -1.640625q1.453125 -1.640625 1.453125 -4.765625q0 -3.0468788 -1.453125 -4.687504q-1.453125 -1.640625 -3.59375 -1.640625q-2.15625 0 -3.625 1.640625q-1.453125 1.640625 -1.453125 4.718754zm38.93358 10.375l-5.4843597 0l0 -10.59375q0 -3.3593788 -0.359375 -4.343754q-0.34375 -0.984375 -1.140625 -1.53125q-0.78125 -0.546875 -1.890625 -0.546875q-1.4375 0 -2.578125 0.78125q-1.125 0.78125 -1.546875 2.078125q-0.40625 1.28125 -0.40625 4.765629l0 9.390625l-5.5 0l0 -20.750004l5.109375 0l0 3.046875q2.703125 -3.515625 6.828125 -3.515625q1.8125 0 3.3125 0.65625q1.515625 0.65625 2.28125 1.671875q0.78123474 1.015625 1.0781097 2.3125q0.296875 1.28125 0.296875 3.6875l0 12.890629zm26.203125 -20.750004l0 4.375l-3.75 0l0 8.359379q0 2.546875 0.09375 2.96875q0.109375 0.421875 0.484375 0.703125q0.390625 0.265625 0.9375 0.265625q0.765625 0 2.203125 -0.53125l0.46875 4.25q-1.90625 0.828125 -4.328125 0.828125q-1.484375 0 -2.6875 -0.5q-1.1875 -0.5 -1.75 -1.28125q-0.546875 -0.796875 -0.765625 -2.140625q-0.171875 -0.96875 -0.171875 -3.875l0 -9.046879l-2.515625 0l0 -4.375l2.515625 0l0 -4.109375l5.515625 -3.203125l0 7.3125l3.75 0zm2.5390625 10.078129q0 -2.7343788 1.34375 -5.281254q1.34375 -2.5625 3.8125 -3.90625q2.46875 -1.359375 5.515625 -1.359375q4.71875 0 7.71875 3.0625q3.015625 3.0625 3.015625 7.718754q0 4.71875 -3.046875 7.8125q-3.03125 3.09375 -7.640625 3.09375q-2.859375 0 -5.453125 -1.28125q-2.578125 -1.296875 -3.921875 -3.78125q-1.34375 -2.5 -1.34375 -6.078125zm5.625 0.296875q0 3.09375 1.453125 4.734375q1.46875 1.640625 3.625 1.640625q2.140625 0 3.59375 -1.640625q1.453125 -1.640625 1.453125 -4.765625q0 -3.0468788 -1.453125 -4.687504q-1.453125 -1.640625 -3.59375 -1.640625q-2.15625 0 -3.625 1.640625q-1.453125 1.640625 -1.453125 4.718754zm31.203125 -18.265629l10.5625 0q3.578125 0 5.453125 0.546875q2.515625 0.75 4.3125 2.640625q1.796875 1.890625 2.734375 4.640625q0.9375 2.75 0.9375 6.765625q0 3.5312538 -0.875 6.093754q-1.078125 3.125 -3.0625 5.0625q-1.5 1.46875 -4.0625 2.28125q-1.921875 0.609375 -5.125 0.609375l-10.875 0l0 -28.640629zm5.78125 4.84375l0 18.968754l4.3125 0q2.421875 0 3.5 -0.265625q1.40625 -0.359375 2.328125 -1.1875q0.9375 -0.84375 1.515625 -2.765625q0.59375 -1.9375 0.59375 -5.250004q0 -3.328125 -0.59375 -5.09375q-0.578125 -1.78125 -1.640625 -2.78125q-1.046875 -1.0 -2.671875 -1.34375q-1.203125 -0.28125 -4.75 -0.28125l-2.59375 0zm35.10547 17.187504l5.46875 0.921875q-1.0625 3.015625 -3.34375 4.59375q-2.265625 1.5625 -5.6875 1.5625q-5.40625 0 -8.0 -3.53125q-2.0625 -2.84375 -2.0625 -7.15625q0 -5.156254 2.6875 -8.078129q2.703125 -2.921875 6.828125 -2.921875q4.625 0 7.296875 3.0625q2.6875 3.0625 2.5625 9.359379l-13.75 0q0.0625 2.453125 1.328125 3.8125q1.28125 1.34375 3.171875 1.34375q1.28125 0 2.15625 -0.703125q0.890625 -0.703125 1.34375 -2.265625zm0.3125 -5.546875q-0.0625 -2.3750038 -1.234375 -3.6093788q-1.171875 -1.25 -2.859375 -1.25q-1.796875 0 -2.96875 1.3125q-1.171875 1.3125 -1.140625 3.5468788l8.203125 0zm21.933594 5.546875l5.46875 0.921875q-1.0625 3.015625 -3.34375 4.59375q-2.265625 1.5625 -5.6875 1.5625q-5.40625 0 -8.0 -3.53125q-2.0625 -2.84375 -2.0625 -7.15625q0 -5.156254 2.6875 -8.078129q2.703125 -2.921875 6.828125 -2.921875q4.625 0 7.296875 3.0625q2.6875 3.0625 2.5625 9.359379l-13.75 0q0.0625 2.453125 1.328125 3.8125q1.28125 1.34375 3.171875 1.34375q1.28125 0 2.15625 -0.703125q0.890625 -0.703125 1.34375 -2.265625zm0.3125 -5.546875q-0.0625 -2.3750038 -1.234375 -3.6093788q-1.171875 -1.25 -2.859375 -1.25q-1.796875 0 -2.96875 1.3125q-1.171875 1.3125 -1.140625 3.5468788l8.203125 0zm9.761719 -8.593754l5.109375 0l0 3.046875q1.0 -1.5625 2.703125 -2.53125q1.703125 -0.984375 3.765625 -0.984375q3.609375 0 6.125 2.84375q2.53125 2.828125 2.53125 7.890629q0 5.1875 -2.546875 8.078125q-2.53125 2.875 -6.140625 2.875q-1.71875 0 -3.125 -0.6875q-1.390625 -0.6875 -2.9375 -2.34375l0 10.453125l-5.484375 0l0 -28.640629zm5.421875 10.031254q0 3.484375 1.390625 5.15625q1.390625 1.671875 3.375 1.671875q1.921875 0 3.1875 -1.53125q1.265625 -1.53125 1.265625 -5.03125q0 -3.2656288 -1.3125 -4.843754q-1.296875 -1.578125 -3.234375 -1.578125q-2.015625 0 -3.34375 1.5625q-1.328125 1.546875 -1.328125 4.593754zm30.46875 10.71875l0 -28.406254l5.78125 0l0 23.578129l14.375 0l0 4.828125l-20.15625 0zm36.26172 -6.609375l5.46875 0.921875q-1.0625 3.015625 -3.34375 4.59375q-2.265625 1.5625 -5.6875 1.5625q-5.40625 0 -8.0 -3.53125q-2.0625 -2.84375 -2.0625 -7.15625q0 -5.156254 2.6875 -8.078129q2.703125 -2.921875 6.828125 -2.921875q4.625 0 7.296875 3.0625q2.6875 3.0625 2.5625 9.359379l-13.75 0q0.0625 2.453125 1.328125 3.8125q1.28125 1.34375 3.171875 1.34375q1.28125 0 2.15625 -0.703125q0.890625 -0.703125 1.34375 -2.265625zm0.3125 -5.546875q-0.0625 -2.3750038 -1.234375 -3.6093788q-1.171875 -1.25 -2.859375 -1.25q-1.796875 0 -2.96875 1.3125q-1.171875 1.3125 -1.140625 3.5468788l8.203125 0zm14.011719 -2.2656288l-4.96875 -0.890625q0.828125 -3.015625 2.875 -4.453125q2.0625 -1.453125 6.109375 -1.453125q3.671875 0 5.46875 0.875q1.796875 0.875 2.515625 2.21875q0.734375 1.328125 0.734375 4.90625l-0.046875 6.406254q0 2.734375 0.25 4.03125q0.265625 1.296875 1.0 2.78125l-5.4375 0q-0.21875 -0.546875 -0.53125 -1.625q-0.125 -0.484375 -0.1875 -0.640625q-1.40625 1.359375 -3.015625 2.046875q-1.59375 0.6875 -3.40625 0.6875q-3.203125 0 -5.0625 -1.734375q-1.84375 -1.75 -1.84375 -4.40625q0 -1.75 0.84375 -3.125q0.84375 -1.375 2.359375 -2.109375q1.515625 -0.734375 4.359375 -1.28125q3.84375 -0.7187538 5.328125 -1.3437538l0 -0.546875q0 -1.59375 -0.78125 -2.265625q-0.78125 -0.671875 -2.9375 -0.671875q-1.46875 0 -2.296875 0.578125q-0.8125 0.578125 -1.328125 2.015625zm7.34375 4.453129q-1.046875 0.359375 -3.34375 0.84375q-2.28125 0.484375 -2.984375 0.953125q-1.0625 0.765625 -1.0625 1.9375q0 1.15625 0.859375 2.0q0.859375 0.828125 2.1875 0.828125q1.484375 0 2.828125 -0.96875q1.0 -0.75 1.3125 -1.8125q0.203125 -0.703125 0.203125 -2.6875l0 -1.09375zm16.058594 9.96875l-5.484375 0l0 -20.750004l5.09375 0l0 2.953125q1.3125 -2.09375 2.359375 -2.75q1.046875 -0.671875 2.375 -0.671875q1.8750305 0 3.6094055 1.046875l-1.703125 4.78125q-1.3906555 -0.90625 -2.5781555 -0.90625q-1.15625 0 -1.953125 0.640625q-0.796875 0.640625 -1.265625 2.296875q-0.453125 1.6562538 -0.453125 6.953129l0 6.40625zm29.175812 0l-5.484375 0l0 -10.59375q0 -3.3593788 -0.359375 -4.343754q-0.34375 -0.984375 -1.140625 -1.53125q-0.78125 -0.546875 -1.890625 -0.546875q-1.4375 0 -2.578125 0.78125q-1.125 0.78125 -1.546875 2.078125q-0.40625 1.28125 -0.40625 4.765629l0 9.390625l-5.5 0l0 -20.750004l5.109375 0l0 3.046875q2.703125 -3.515625 6.828125 -3.515625q1.8125 0 3.3125 0.65625q1.515625 0.65625 2.28125 1.671875q0.78125 1.015625 1.078125 2.3125q0.296875 1.28125 0.296875 3.6875l0 12.890629zm5.5742188 -23.562504l0 -5.078125l5.484375 0l0 5.078125l-5.484375 0zm0 23.562504l0 -20.750004l5.484375 0l0 20.750004l-5.484375 0zm29.972656 0l-5.484375 0l0 -10.59375q0 -3.3593788 -0.359375 -4.343754q-0.34375 -0.984375 -1.140625 -1.53125q-0.78125 -0.546875 -1.890625 -0.546875q-1.4375 0 -2.578125 0.78125q-1.125 0.78125 -1.546875 2.078125q-0.40625 1.28125 -0.40625 4.765629l0 9.390625l-5.5 0l0 -20.750004l5.109375 0l0 3.046875q2.703125 -3.515625 6.828125 -3.515625q1.8125 0 3.3125 0.65625q1.515625 0.65625 2.28125 1.671875q0.78125 1.015625 1.078125 2.3125q0.296875 1.28125 0.296875 3.6875l0 12.890629zm5.0585938 1.375l6.28125 0.75q0.15625 1.09375 0.71875 1.515625q0.78125 0.578125 2.453125 0.578125q2.15625 0 3.234375 -0.640625q0.71875 -0.4375 1.09375 -1.390625q0.25 -0.6875 0.25 -2.515625l0 -3.03125q-2.46875 3.359375 -6.21875 3.359375q-4.171875 0 -6.609375 -3.53125q-1.921875 -2.796875 -1.921875 -6.953125q0 -5.218754 2.5 -7.968754q2.515625 -2.765625 6.25 -2.765625q3.84375 0 6.34375 3.390625l0 -2.921875l5.140625 0l0 18.625004q0 3.671875 -0.609375 5.484375q-0.59375 1.8125 -1.6875 2.84375q-1.09375 1.046875 -2.921875 1.625q-1.828125 0.59375 -4.625 0.59375q-5.265625 0 -7.484375 -1.8125q-2.203125 -1.796875 -2.203125 -4.578125q0 -0.265625 0.015625 -0.65625zm4.90625 -12.171875q0 3.296875 1.28125 4.828125q1.28125 1.53125 3.15625 1.53125q2.015625 0 3.390625 -1.5625q1.390625 -1.578125 1.390625 -4.671875q0 -3.2187538 -1.328125 -4.781254q-1.328125 -1.5625 -3.359375 -1.5625q-1.96875 0 -3.25 1.53125q-1.28125 1.53125 -1.28125 4.687504zm35.015625 10.796875l-6.5625 -20.750004l5.34375 0l3.875 13.593754l3.578125 -13.593754l5.296875 0l3.453125 13.593754l3.96875 -13.593754l5.40625 0l-6.65625 20.750004l-5.28125 0l-3.5625 -13.343754l-3.515625 13.343754l-5.34375 0zm27.253906 -23.562504l0 -5.078125l5.484375 0l0 5.078125l-5.484375 0zm0 23.562504l0 -20.750004l5.484375 0l0 20.750004l-5.484375 0zm20.628906 -20.750004l0 4.375l-3.75 0l0 8.359379q0 2.546875 0.09375 2.96875q0.109375 0.421875 0.484375 0.703125q0.390625 0.265625 0.9375 0.265625q0.765625 0 2.203125 -0.53125l0.46875 4.25q-1.90625 0.828125 -4.328125 0.828125q-1.484375 0 -2.6875 -0.5q-1.1875 -0.5 -1.75 -1.28125q-0.546875 -0.796875 -0.765625 -2.140625q-0.171875 -0.96875 -0.171875 -3.875l0 -9.046879l-2.515625 0l0 -4.375l2.515625 0l0 -4.109375l5.515625 -3.203125l0 7.3125l3.75 0zm9.2734375 -7.890625l0 10.53125q2.65625 -3.109375 6.34375 -3.109375q1.890625 0 3.40625 0.703125q1.53125 0.703125 2.296875 1.796875q0.78125 1.09375 1.0625 2.421875q0.28125 1.328125 0.28125 4.125004l0 12.171875l-5.484375 0l0 -10.953125q0 -3.2656288 -0.3125 -4.140629q-0.3125 -0.890625 -1.109375 -1.40625q-0.78125 -0.515625 -1.96875 -0.515625q-1.375 0 -2.453125 0.671875q-1.0625 0.65625 -1.5625 2.0q-0.5 1.328125 -0.5 3.9531288l0 10.390625l-5.484375 0l0 -28.640629l5.484375 0zm36.5625 28.640629l0 -23.796879l-8.5 0l0 -4.84375l22.75 0l0 4.84375l-8.46875 0l0 23.796879l-5.78125 0zm26.996094 -6.609375l5.46875 0.921875q-1.0625 3.015625 -3.34375 4.59375q-2.265625 1.5625 -5.6875 1.5625q-5.40625 0 -8.0 -3.53125q-2.0625 -2.84375 -2.0625 -7.15625q0 -5.156254 2.6875 -8.078129q2.703125 -2.921875 6.828125 -2.921875q4.625 0 7.296875 3.0625q2.6875 3.0625 2.5625 9.359379l-13.75 0q0.0625 2.453125 1.328125 3.8125q1.28125 1.34375 3.171875 1.34375q1.28125 0 2.15625 -0.703125q0.890625 -0.703125 1.34375 -2.265625zm0.3125 -5.546875q-0.0625 -2.3750038 -1.234375 -3.6093788q-1.171875 -1.25 -2.859375 -1.25q-1.796875 0 -2.96875 1.3125q-1.171875 1.3125 -1.140625 3.5468788l8.203125 0zm28.777344 12.15625l-5.484375 0l0 -10.59375q0 -3.3593788 -0.359375 -4.343754q-0.34375 -0.984375 -1.140625 -1.53125q-0.78125 -0.546875 -1.890625 -0.546875q-1.4375 0 -2.578125 0.78125q-1.125 0.78125 -1.546875 2.078125q-0.40625 1.28125 -0.40625 4.765629l0 9.390625l-5.5 0l0 -20.750004l5.109375 0l0 3.046875q2.703125 -3.515625 6.828125 -3.515625q1.8125 0 3.3125 0.65625q1.515625 0.65625 2.28125 1.671875q0.78125 1.015625 1.078125 2.3125q0.296875 1.28125 0.296875 3.6875l0 12.890629zm3.6367188 -5.921875l5.515625 -0.84375q0.34375 1.609375 1.421875 2.4375q1.078125 0.828125 3.0 0.828125q2.140625 0 3.203125 -0.78125q0.734375 -0.546875 0.734375 -1.46875q0 -0.625 -0.390625 -1.03125q-0.421875 -0.390625 -1.84375 -0.71875q-6.640625 -1.46875 -8.421875 -2.671875q-2.453125 -1.6875 -2.453125 -4.671879q0 -2.703125 2.125 -4.53125q2.125 -1.84375 6.609375 -1.84375q4.25 0 6.3125 1.390625q2.078125 1.390625 2.859375 4.109375l-5.171875 0.953125q-0.328125 -1.21875 -1.265625 -1.859375q-0.921875 -0.640625 -2.640625 -0.640625q-2.171875 0 -3.109375 0.609375q-0.625 0.421875 -0.625 1.109375q0 0.578125 0.546875 1.0q0.75 0.546875 5.125 1.546875q4.390625 0.9843788 6.125 2.4375038q1.71875 1.453125 1.71875 4.078125q0 2.84375 -2.390625 4.90625q-2.375 2.046875 -7.046875 2.046875q-4.234375 0 -6.703125 -1.71875q-2.46875 -1.71875 -3.234375 -4.671875zm22.917969 -4.75q0 -2.7343788 1.34375 -5.281254q1.34375 -2.5625 3.8125 -3.90625q2.46875 -1.359375 5.515625 -1.359375q4.71875 0 7.71875 3.0625q3.015625 3.0625 3.015625 7.718754q0 4.71875 -3.046875 7.8125q-3.03125 3.09375 -7.640625 3.09375q-2.859375 0 -5.453125 -1.28125q-2.578125 -1.296875 -3.921875 -3.78125q-1.34375 -2.5 -1.34375 -6.078125zm5.625 0.296875q0 3.09375 1.453125 4.734375q1.46875 1.640625 3.625 1.640625q2.140625 0 3.59375 -1.640625q1.453125 -1.640625 1.453125 -4.765625q0 -3.0468788 -1.453125 -4.687504q-1.453125 -1.640625 -3.59375 -1.640625q-2.15625 0 -3.625 1.640625q-1.453125 1.640625 -1.453125 4.718754zm25.324219 10.375l-5.484375 0l0 -20.750004l5.09375 0l0 2.953125q1.3125 -2.09375 2.359375 -2.75q1.046875 -0.671875 2.375 -0.671875q1.875 0 3.609375 1.046875l-1.703125 4.78125q-1.390625 -0.90625 -2.578125 -0.90625q-1.15625 0 -1.953125 0.640625q-0.796875 0.640625 -1.265625 2.296875q-0.453125 1.6562538 -0.453125 6.953129l0 6.40625zm10.394531 0l0 -28.640629l19.625 0l0 4.84375l-13.84375 0l0 6.78125l11.953125 0l0 4.843754l-11.953125 0l0 12.171875l-5.78125 0zm24.355469 0l0 -28.640629l5.484375 0l0 28.640629l-5.484375 0zm9.847656 -10.671875q0 -2.7343788 1.34375 -5.281254q1.34375 -2.5625 3.8125 -3.90625q2.46875 -1.359375 5.515625 -1.359375q4.71875 0 7.71875 3.0625q3.015625 3.0625 3.015625 7.718754q0 4.71875 -3.046875 7.8125q-3.03125 3.09375 -7.640625 3.09375q-2.859375 0 -5.453125 -1.28125q-2.578125 -1.296875 -3.921875 -3.78125q-1.34375 -2.5 -1.34375 -6.078125zm5.625 0.296875q0 3.09375 1.453125 4.734375q1.46875 1.640625 3.625 1.640625q2.140625 0 3.59375 -1.640625q1.453125 -1.640625 1.453125 -4.765625q0 -3.0468788 -1.453125 -4.687504q-1.453125 -1.640625 -3.59375 -1.640625q-2.15625 0 -3.625 1.640625q-1.453125 1.640625 -1.453125 4.718754zm23.933594 10.375l-6.5625 -20.750004l5.34375 0l3.875 13.593754l3.578125 -13.593754l5.296875 0l3.453125 13.593754l3.96875 -13.593754l5.40625 0l-6.65625 20.750004l-5.28125 0l-3.5625 -13.343754l-3.515625 13.343754l-5.34375 0z" fill-rule="nonzero"/><path fill="#000000" fill-opacity="0.0" d="m368.25592 253.98032l222.99213 0l0 74.96063l-222.99213 0z" fill-rule="evenodd"/><path fill="#000000" d="m469.89838 284.00314q1.125 0.8125 2.46875 1.296875l-1.140625 2.171875q-0.703125 -0.203125 -1.359375 -0.578125q-0.15625 -0.0625 -2.0625 -1.34375q-1.484375 0.65625 -3.3125 0.65625q-3.515625 0 -5.515625 -2.078125q-2.0 -2.078125 -2.0 -5.828125q0 -3.734375 2.0 -5.8125q2.0 -2.078125 5.4375 -2.078125q3.390625 0 5.375 2.078125q1.984375 2.078125 1.984375 5.8125q0 1.984375 -0.546875 3.484375q-0.421875 1.140625 -1.328125 2.21875zm-2.484375 -1.734375q0.59375 -0.703125 0.890625 -1.6875q0.296875 -1.0 0.296875 -2.28125q0 -2.640625 -1.171875 -3.9375q-1.15625 -1.3125 -3.046875 -1.3125q-1.875 0 -3.046875 1.3125q-1.171875 1.3125 -1.171875 3.9375q0 2.6875 1.171875 4.015625q1.171875 1.328125 2.953125 1.328125q0.671875 0 1.265625 -0.21875q-0.9375 -0.625 -1.90625 -0.96875l0.859375 -1.75q1.53125 0.515625 2.90625 1.5625zm20.292816 1.8125l-1.78125 2.25q-1.296875 -0.625 -2.5 -1.75q-0.921875 0.84375 -1.96875 1.234375q-1.03125 0.390625 -2.46875 0.390625q-2.859375 0 -4.296875 -1.59375q-1.109375 -1.25 -1.109375 -2.859375q0 -1.46875 0.875 -2.640625q0.875 -1.171875 2.609375 -2.03125q-0.78125 -0.9375 -1.171875 -1.765625q-0.390625 -0.84375 -0.390625 -1.59375q0 -1.375 1.109375 -2.34375q1.109375 -0.96875 3.15625 -0.96875q1.984375 0 3.09375 1.015625q1.109375 1.015625 1.109375 2.46875q0 0.921875 -0.546875 1.765625q-0.546875 0.828125 -2.234375 1.875l2.125 2.796875q0.375 -0.65625 0.640625 -1.734375l2.65625 0.609375q-0.40625 1.40625 -0.703125 2.0625q-0.28125 0.640625 -0.609375 1.078125q0.484375 0.453125 1.25 1.0q0.78125 0.546875 1.15625 0.734375zm-7.96875 -8.3125l0.796875 -0.59375q0.875 -0.671875 0.875 -1.34375q0 -0.5625 -0.421875 -0.953125q-0.421875 -0.40625 -1.140625 -0.40625q-0.703125 0 -1.109375 0.359375q-0.390625 0.34375 -0.390625 0.796875q0 0.546875 0.671875 1.3125l0.71875 0.828125zm-1.140625 3.1875q-1.015625 0.5 -1.515625 1.21875q-0.5 0.71875 -0.5 1.46875q0 0.953125 0.609375 1.5625q0.625 0.59375 1.671875 0.59375q0.6875 0 1.3125 -0.265625q0.640625 -0.28125 1.390625 -0.90625l-2.96875 -3.671875zm24.761902 6.984375l-3.34375 0l-1.328125 -3.46875l-6.1094055 0l-1.265625 3.46875l-3.265625 0l5.953125 -15.265625l3.2500305 0l6.109375 15.265625zm-5.671875 -6.046875l-2.0937805 -5.65625l-2.0625 5.65625l4.1562805 0z" fill-rule="nonzero"/><path fill="#000000" d="m422.14777 316.42502l-2.015625 0q-1.59375 -2.40625 -2.4375 -5.0q-0.828125 -2.59375 -0.828125 -5.015625q0 -3.015625 1.03125 -5.6875q0.90625 -2.34375 2.28125 -4.3125l2.0 0q-1.4375 3.15625 -1.96875 5.375q-0.53125 2.203125 -0.53125 4.6875q0 1.703125 0.3125 3.5q0.3125 1.796875 0.875 3.40625q0.359375 1.0625 1.28125 3.046875zm1.6649475 -8.40625l2.90625 -0.3125q0.125 1.0 0.734375 1.578125q0.625 0.578125 1.421875 0.578125q0.921875 0 1.546875 -0.75q0.640625 -0.75 0.640625 -2.25q0 -1.40625 -0.625 -2.109375q-0.625 -0.703125 -1.640625 -0.703125q-1.265625 0 -2.265625 1.125l-2.375 -0.34375l1.5 -7.953125l7.75 0l0 2.75l-5.53125 0l-0.453125 2.578125q0.984375 -0.484375 2.0 -0.484375q1.953125 0 3.296875 1.421875q1.359375 1.40625 1.359375 3.671875q0 1.890625 -1.09375 3.359375q-1.484375 2.03125 -4.140625 2.03125q-2.109375 0 -3.453125 -1.140625q-1.328125 -1.140625 -1.578125 -3.046875zm18.146698 -7.140625l2.703125 0l0 1.515625q1.4375 -1.765625 3.4375 -1.765625q1.0625 0 1.84375 0.4375q0.78125 0.4375 1.28125 1.328125q0.734375 -0.890625 1.578125 -1.328125q0.84375 -0.4375 1.796875 -0.4375q1.21875 0 2.0625 0.5q0.84375 0.484375 1.265625 1.453125q0.296875 0.703125 0.296875 2.28125l0 7.078125l-2.921875 0l0 -6.328125q0 -1.640625 -0.3125 -2.125q-0.40625 -0.625 -1.25 -0.625q-0.609375 0 -1.15625 0.375q-0.53125 0.375 -0.78125 1.109375q-0.234375 0.71875 -0.234375 2.28125l0 5.3125l-2.921875 0l0 -6.0625q0 -1.609375 -0.15625 -2.078125q-0.15625 -0.46875 -0.484375 -0.703125q-0.328125 -0.234375 -0.890625 -0.234375q-0.671875 0 -1.21875 0.375q-0.546875 0.359375 -0.78125 1.046875q-0.234375 0.6875 -0.234375 2.28125l0 5.375l-2.921875 0l0 -11.0625zm19.182892 -1.5l0 -2.703125l2.921875 0l0 2.703125l-2.921875 0zm0 12.5625l0 -11.0625l2.921875 0l0 11.0625l-2.921875 0zm15.988129 0l-2.921875 0l0 -5.640625q0 -1.796875 -0.1875 -2.3125q-0.1875 -0.53125 -0.609375 -0.828125q-0.421875 -0.296875 -1.015625 -0.296875q-0.765625 0 -1.375 0.421875q-0.59375 0.421875 -0.828125 1.109375q-0.21875 0.6875 -0.21875 2.53125l0 5.015625l-2.921875 0l0 -11.0625l2.71875 0l0 1.625q1.4375 -1.875 3.640625 -1.875q0.96875 0 1.765625 0.359375q0.8125 0.34375 1.21875 0.890625q0.40625 0.53125 0.5625 1.21875q0.171875 0.6875 0.171875 1.96875l0 6.875zm1.9343262 -3.15625l2.9375 -0.453125q0.1875 0.859375 0.75 1.3125q0.578125 0.4375 1.609375 0.4375q1.140625 0 1.71875 -0.421875q0.375 -0.296875 0.375 -0.78125q0 -0.328125 -0.203125 -0.546875q-0.21875 -0.21875 -0.984375 -0.390625q-3.53125 -0.78125 -4.484375 -1.421875q-1.3125 -0.90625 -1.3125 -2.5q0 -1.4375 1.125 -2.40625q1.140625 -0.984375 3.53125 -0.984375q2.265625 0 3.375 0.75q1.109375 0.734375 1.515625 2.171875l-2.75 0.515625q-0.1875 -0.640625 -0.6875 -0.984375q-0.484375 -0.34375 -1.40625 -0.34375q-1.15625 0 -1.65625 0.3125q-0.328125 0.234375 -0.328125 0.59375q0 0.3125 0.296875 0.53125q0.390625 0.296875 2.71875 0.828125q2.34375 0.53125 3.28125 1.296875q0.90625 0.78125 0.90625 2.1875q0 1.515625 -1.265625 2.609375q-1.265625 1.09375 -3.765625 1.09375q-2.25 0 -3.578125 -0.90625q-1.3125 -0.921875 -1.71875 -2.5zm11.330444 3.421875l3.78125 -15.796875l2.203125 0l-3.828125 15.796875l-2.15625 0zm7.410034 -11.328125l2.71875 0l0 1.625q0.53125 -0.828125 1.4375 -1.34375q0.90625 -0.53125 2.015625 -0.53125q1.921875 0 3.265625 1.515625q1.34375 1.5 1.34375 4.203125q0 2.765625 -1.359375 4.3125q-1.34375 1.53125 -3.265625 1.53125q-0.921875 0 -1.671875 -0.359375q-0.734375 -0.375 -1.5625 -1.25l0 5.5625l-2.921875 0l0 -15.265625zm2.890625 5.34375q0 1.859375 0.734375 2.75q0.75 0.890625 1.8125 0.890625q1.015625 0 1.6875 -0.8125q0.6875 -0.8125 0.6875 -2.6875q0 -1.734375 -0.703125 -2.578125q-0.703125 -0.84375 -1.734375 -0.84375q-1.0625 0 -1.78125 0.828125q-0.703125 0.828125 -0.703125 2.453125zm12.403076 -1.96875l-2.65625 -0.484375q0.453125 -1.59375 1.546875 -2.359375q1.09375 -0.78125 3.25 -0.78125q1.953125 0 2.90625 0.46875q0.96875 0.453125 1.359375 1.171875q0.390625 0.71875 0.390625 2.625l-0.03125 3.40625q0 1.46875 0.125 2.15625q0.140625 0.6875 0.53125 1.484375l-2.890625 0q-0.109375 -0.296875 -0.28125 -0.859375q-0.078125 -0.265625 -0.109375 -0.34375q-0.75 0.71875 -1.609375 1.09375q-0.84375 0.359375 -1.8125 0.359375q-1.703125 0 -2.6875 -0.921875q-0.984375 -0.9375 -0.984375 -2.34375q0 -0.9375 0.4375 -1.671875q0.453125 -0.734375 1.25 -1.125q0.8125 -0.390625 2.34375 -0.6875q2.046875 -0.390625 2.84375 -0.71875l0 -0.296875q0 -0.84375 -0.421875 -1.203125q-0.421875 -0.359375 -1.578125 -0.359375q-0.78125 0 -1.21875 0.3125q-0.4375 0.3125 -0.703125 1.078125zm3.921875 2.375q-0.5625 0.1875 -1.78125 0.453125q-1.21875 0.25 -1.59375 0.5q-0.578125 0.40625 -0.578125 1.03125q0 0.625 0.453125 1.078125q0.46875 0.4375 1.171875 0.4375q0.796875 0 1.515625 -0.515625q0.53125 -0.40625 0.6875 -0.96875q0.125 -0.375 0.125 -1.4375l0 -0.578125zm8.549194 5.3125l-2.921875 0l0 -11.0625l2.71875 0l0 1.578125q0.703125 -1.125 1.25 -1.46875q0.5625 -0.359375 1.265625 -0.359375q1.0 0 1.9375 0.5625l-0.90625 2.546875q-0.75 -0.484375 -1.375 -0.484375q-0.625 0 -1.046875 0.34375q-0.421875 0.328125 -0.671875 1.21875q-0.25 0.890625 -0.25 3.703125l0 3.421875zm10.581299 -11.0625l0 2.328125l-2.0 0l0 4.46875q0 1.34375 0.046875 1.578125q0.0625 0.21875 0.265625 0.375q0.203125 0.140625 0.5 0.140625q0.40625 0 1.171875 -0.28125l0.25 2.265625q-1.015625 0.4375 -2.3125 0.4375q-0.796875 0 -1.4375 -0.265625q-0.625 -0.265625 -0.921875 -0.6875q-0.296875 -0.421875 -0.40625 -1.140625q-0.09375 -0.515625 -0.09375 -2.0625l0 -4.828125l-1.34375 0l0 -2.328125l1.34375 0l0 -2.1875l2.9375 -1.71875l0 3.90625l2.0 0zm1.211792 15.546875q0.859375 -1.84375 1.21875 -2.84375q0.359375 -0.984375 0.65625 -2.265625q0.296875 -1.296875 0.4375 -2.453125q0.15625 -1.171875 0.15625 -2.390625q0 -2.484375 -0.53125 -4.6875q-0.53125 -2.21875 -1.953125 -5.375l1.984375 0q1.578125 2.25 2.4375 4.765625q0.875 2.5 0.875 5.078125q0 2.171875 -0.6875 4.671875q-0.78125 2.78125 -2.578125 5.5l-2.015625 0z" fill-rule="nonzero"/></g></svg>